<?xml version="1.0" encoding="UTF-8"?><svg xmlns="http://www.w3.org/2000/svg" xmlns:xlink="http://www.w3.org/1999/xlink" width="375" zoomAndPan="magnify" viewBox="0 0 375 374.999991" height="374.999991" preserveAspectRatio="xMidYMid meet" version="1.0"><path fill="rgb(100%, 74.899292%, 0.779724%)" d="M 308.46875 181.453125 C 311.800781 181.453125 314.515625 184.167969 314.515625 187.5 L 314.515625 235.886719 L 326.613281 235.886719 L 326.613281 199.597656 C 326.613281 196.265625 329.328125 193.546875 332.660156 193.546875 C 335.992188 193.546875 338.710938 196.265625 338.710938 199.597656 L 338.710938 235.886719 L 350.804688 235.886719 L 350.804688 211.695312 C 350.804688 208.363281 353.523438 205.644531 356.855469 205.644531 C 360.1875 205.644531 362.902344 208.363281 362.902344 211.695312 L 362.902344 284.605469 C 362.902344 287.417969 362.242188 290.226562 360.988281 292.734375 L 350.804688 313.097656 L 350.804688 326.613281 L 254.03125 326.613281 L 254.03125 312.507812 L 238.535156 291.835938 C 236.644531 289.304688 235.4375 286.328125 235.035156 283.210938 L 230.761719 248.90625 C 230.003906 242.929688 227.855469 237.117188 224.5 232.105469 L 218.285156 222.773438 C 217.929688 222.230469 217.742188 221.617188 217.742188 220.980469 C 217.742188 219.183594 219.183594 217.742188 220.980469 217.742188 C 233.761719 217.742188 244.839844 226.839844 247.347656 239.359375 L 255.117188 278.226562 L 269.863281 278.226562 L 275.035156 267.902344 C 277.117188 263.71875 278.226562 259.042969 278.226562 254.363281 L 278.226562 127.015625 C 278.226562 123.683594 280.941406 120.96875 284.273438 120.96875 C 287.605469 120.96875 290.324219 123.683594 290.324219 127.015625 L 290.324219 235.886719 L 302.417969 235.886719 L 302.417969 187.5 C 302.417969 184.167969 305.136719 181.453125 308.46875 181.453125 Z M 362.902344 362.902344 L 241.933594 362.902344 L 241.933594 338.710938 L 362.902344 338.710938 Z M 282.265625 109.082031 C 264.851562 97.316406 251.246094 80.96875 242.953125 61.617188 C 242.265625 60.035156 241.933594 58.382812 241.933594 56.089844 C 241.933594 52.78125 243.28125 49.542969 245.621094 47.207031 L 254.03125 38.792969 C 257.222656 35.605469 262.9375 35.605469 266.128906 38.792969 L 276.785156 49.449219 C 277.707031 50.394531 278.226562 51.601562 278.226562 52.921875 L 278.226562 53.726562 C 278.226562 55.59375 277.1875 57.269531 275.507812 58.097656 C 269.71875 61.003906 266.128906 66.816406 266.128906 73.289062 L 266.128906 74.09375 C 266.128906 78.628906 267.902344 82.90625 271.113281 86.117188 L 276.785156 91.789062 C 279.996094 95.003906 284.273438 96.773438 288.808594 96.773438 L 289.613281 96.773438 C 296.085938 96.773438 301.898438 93.183594 304.804688 87.394531 C 305.632812 85.71875 307.308594 84.675781 309.175781 84.675781 L 309.980469 84.675781 C 311.304688 84.675781 312.507812 85.195312 313.453125 86.117188 L 324.109375 96.773438 C 325.691406 98.355469 326.613281 100.578125 326.613281 102.824219 C 326.613281 105.066406 325.691406 107.289062 324.109375 108.871094 L 315.699219 117.28125 C 311.988281 120.992188 305.890625 121.984375 301.191406 119.644531 L 300.671875 119.382812 C 297.789062 113.195312 291.550781 108.871094 284.273438 108.871094 C 283.589844 108.871094 282.925781 108.988281 282.265625 109.082031 Z M 223.789062 145.160156 C 213.773438 145.160156 205.644531 137.035156 205.644531 127.015625 L 205.644531 30.242188 C 205.644531 20.222656 213.773438 12.097656 223.789062 12.097656 L 344.757812 12.097656 C 354.777344 12.097656 362.902344 20.222656 362.902344 30.242188 L 362.902344 127.015625 C 362.902344 137.035156 354.777344 145.160156 344.757812 145.160156 L 302.417969 145.160156 L 302.417969 132.542969 C 303.859375 132.828125 305.324219 133.066406 306.8125 133.066406 C 313.289062 133.066406 319.644531 130.441406 324.25 125.835938 L 332.660156 117.421875 C 336.558594 113.523438 338.710938 108.328125 338.710938 102.824219 C 338.710938 97.316406 336.558594 92.121094 332.660156 88.222656 L 322.003906 77.566406 C 318.792969 74.351562 314.515625 72.582031 309.980469 72.582031 L 309.175781 72.582031 C 302.703125 72.582031 296.890625 76.171875 293.984375 81.960938 C 293.15625 83.636719 291.480469 84.675781 289.613281 84.675781 L 288.808594 84.675781 C 287.488281 84.675781 286.28125 84.15625 285.335938 83.234375 L 279.667969 77.566406 C 278.746094 76.621094 278.226562 75.414062 278.226562 74.09375 L 278.226562 73.289062 C 278.226562 71.421875 279.265625 69.746094 280.941406 68.917969 C 286.730469 66.011719 290.324219 60.199219 290.324219 53.726562 L 290.324219 52.921875 C 290.324219 48.386719 288.550781 44.109375 285.335938 40.898438 L 274.683594 30.242188 C 266.886719 22.445312 253.277344 22.445312 245.480469 30.242188 L 237.070312 38.652344 C 232.460938 43.261719 229.839844 49.617188 229.839844 56.65625 C 229.839844 60.011719 230.5 63.296875 231.824219 66.367188 C 240.234375 85.953125 253.464844 102.773438 270.359375 115.511719 C 267.757812 118.652344 266.128906 122.621094 266.128906 127.015625 L 266.128906 145.160156 Z M 344.757812 157.257812 C 361.4375 157.257812 375 143.695312 375 127.015625 L 375 30.242188 C 375 13.5625 361.4375 0 344.757812 0 L 223.789062 0 C 207.109375 0 193.546875 13.5625 193.546875 30.242188 L 193.546875 127.015625 C 193.546875 143.695312 207.109375 157.257812 223.789062 157.257812 L 266.128906 157.257812 L 266.128906 254.363281 C 266.128906 257.128906 265.492188 259.867188 264.285156 262.347656 L 259.207031 236.972656 C 255.589844 218.828125 239.5 205.644531 220.980469 205.644531 C 212.519531 205.644531 205.644531 212.519531 205.644531 220.980469 C 205.644531 224.003906 206.542969 226.957031 208.21875 229.484375 L 214.457031 238.816406 C 216.75 242.265625 218.238281 246.28125 218.757812 250.394531 L 223.035156 284.699219 C 223.695312 289.921875 225.703125 294.882812 228.847656 299.089844 L 241.933594 316.523438 L 241.933594 326.613281 L 229.839844 326.613281 L 229.839844 375 L 375 375 L 375 326.613281 L 362.902344 326.613281 L 362.902344 315.957031 L 371.808594 298.144531 C 373.890625 293.960938 375 289.28125 375 284.605469 L 375 211.695312 C 375 201.675781 366.871094 193.546875 356.855469 193.546875 C 354.46875 193.546875 352.199219 194.042969 350.097656 194.871094 C 348.019531 187.167969 341.023438 181.453125 332.660156 181.453125 C 330.273438 181.453125 328.007812 181.949219 325.902344 182.773438 C 323.824219 175.074219 316.832031 169.355469 308.46875 169.355469 C 306.339844 169.355469 304.332031 169.804688 302.417969 170.464844 L 302.417969 157.257812 L 344.757812 157.257812 " fill-opacity="1" fill-rule="nonzero"/><path fill="rgb(100%, 74.899292%, 0.779724%)" d="M 169.355469 320.566406 C 169.355469 330.582031 161.226562 338.710938 151.210938 338.710938 L 30.242188 338.710938 C 20.222656 338.710938 12.097656 330.582031 12.097656 320.566406 L 12.097656 223.789062 C 12.097656 213.773438 20.222656 205.644531 30.242188 205.644531 L 151.210938 205.644531 C 161.226562 205.644531 169.355469 213.773438 169.355469 223.789062 Z M 151.210938 193.546875 L 30.242188 193.546875 C 13.5625 193.546875 0 207.109375 0 223.789062 L 0 320.566406 C 0 337.246094 13.5625 350.804688 30.242188 350.804688 L 151.210938 350.804688 C 167.890625 350.804688 181.453125 337.246094 181.453125 320.566406 L 181.453125 223.789062 C 181.453125 207.109375 167.890625 193.546875 151.210938 193.546875 " fill-opacity="1" fill-rule="nonzero"/><path fill="rgb(100%, 74.899292%, 0.779724%)" d="M 169.355469 127.015625 C 169.355469 137.035156 161.226562 145.160156 151.210938 145.160156 L 30.242188 145.160156 C 20.222656 145.160156 12.097656 137.035156 12.097656 127.015625 L 12.097656 30.242188 C 12.097656 20.222656 20.222656 12.097656 30.242188 12.097656 L 151.210938 12.097656 C 161.226562 12.097656 169.355469 20.222656 169.355469 30.242188 Z M 151.210938 0 L 30.242188 0 C 13.5625 0 0 13.5625 0 30.242188 L 0 127.015625 C 0 143.695312 13.5625 157.257812 30.242188 157.257812 L 151.210938 157.257812 C 167.890625 157.257812 181.453125 143.695312 181.453125 127.015625 L 181.453125 30.242188 C 181.453125 13.5625 167.890625 0 151.210938 0 " fill-opacity="1" fill-rule="nonzero"/><path fill="rgb(100%, 74.899292%, 0.779724%)" d="M 90.726562 96.773438 C 84.0625 96.773438 78.628906 91.339844 78.628906 84.675781 L 78.628906 72.582031 C 78.628906 65.917969 84.0625 60.484375 90.726562 60.484375 C 97.386719 60.484375 102.824219 65.917969 102.824219 72.582031 L 102.824219 84.675781 C 102.824219 91.339844 97.386719 96.773438 90.726562 96.773438 Z M 90.726562 24.195312 C 64.050781 24.195312 42.339844 45.90625 42.339844 72.582031 L 42.339844 84.675781 C 42.339844 111.351562 64.050781 133.066406 90.726562 133.066406 L 90.726562 120.96875 C 70.714844 120.96875 54.433594 104.6875 54.433594 84.675781 L 54.433594 72.582031 C 54.433594 52.570312 70.714844 36.289062 90.726562 36.289062 C 110.738281 36.289062 127.015625 52.570312 127.015625 72.582031 L 127.015625 102.824219 C 127.015625 106.152344 124.300781 108.871094 120.96875 108.871094 C 117.636719 108.871094 114.917969 106.152344 114.917969 102.824219 L 114.917969 72.582031 C 114.917969 59.230469 104.074219 48.386719 90.726562 48.386719 C 77.375 48.386719 66.53125 59.230469 66.53125 72.582031 L 66.53125 84.675781 C 66.53125 98.027344 77.375 108.871094 90.726562 108.871094 C 95.261719 108.871094 99.445312 107.546875 103.082031 105.375 C 104.335938 114.164062 111.824219 120.96875 120.96875 120.96875 C 130.984375 120.96875 139.113281 112.839844 139.113281 102.824219 L 139.113281 72.582031 C 139.113281 45.90625 117.398438 24.195312 90.726562 24.195312 " fill-opacity="1" fill-rule="nonzero"/><path fill="rgb(100%, 74.899292%, 0.779724%)" d="M 61.5 275.699219 L 36.289062 295.875 L 36.289062 250.488281 Z M 107.097656 271.445312 C 98.355469 280.1875 83.09375 280.1875 74.351562 271.445312 L 44.84375 241.933594 L 136.609375 241.933594 Z M 119.953125 275.722656 L 145.160156 250.488281 L 145.160156 295.875 Z M 70.546875 283.96875 C 76.433594 288.078125 83.402344 290.324219 90.726562 290.324219 C 98.050781 290.324219 105.019531 288.078125 110.902344 283.96875 L 133.960938 302.417969 L 47.488281 302.417969 Z M 24.195312 314.515625 L 157.257812 314.515625 L 157.257812 229.839844 L 24.195312 229.839844 L 24.195312 314.515625 " fill-opacity="1" fill-rule="nonzero"/></svg>