<?xml version="1.0" encoding="UTF-8"?><svg xmlns="http://www.w3.org/2000/svg" xmlns:xlink="http://www.w3.org/1999/xlink" width="375" zoomAndPan="magnify" viewBox="0 0 375 374.999991" height="374.999991" preserveAspectRatio="xMidYMid meet" version="1.0"><defs><clipPath id="clip-0"><path d="M 356 45 L 356.832031 45 L 356.832031 67 L 356 67 Z M 356 45 " clip-rule="nonzero"/></clipPath><clipPath id="clip-1"><path d="M 349 183 L 356.832031 183 L 356.832031 189 L 349 189 Z M 349 183 " clip-rule="nonzero"/></clipPath></defs><path fill="rgb(100%, 74.899292%, 0.779724%)" d="M 283.214844 61.589844 C 283.265625 62.570312 283.78125 63.089844 284.761719 63.140625 C 285.742188 64.6875 287.394531 65.359375 288.890625 66.238281 C 289.871094 67.785156 291.316406 66.289062 292.503906 66.753906 C 294.878906 67.375 297.152344 66.289062 299.472656 66.339844 C 305.050781 66.394531 307.734375 61.953125 311.039062 58.492188 C 312.019531 58.132812 312.121094 57.304688 312.070312 56.429688 C 313.566406 55.035156 314.085938 53.125 314.652344 51.265625 C 315.476562 48.683594 315.53125 46.101562 314.652344 43.523438 C 313.671875 42.28125 315.683594 41.558594 315.167969 40.320312 C 313.257812 35.621094 312.742188 30.148438 307.425781 27.515625 C 306.703125 26.691406 305.722656 27.105469 304.84375 27 C 302.46875 27.257812 300.195312 27.929688 297.875 28.550781 C 293.28125 29.789062 289.097656 31.699219 285.792969 35.363281 C 283.265625 38.203125 281.097656 41.042969 279.753906 44.605469 C 278.050781 49.40625 278.101562 58.699219 283.214844 61.589844 Z M 283.214844 61.589844 " fill-opacity="1" fill-rule="nonzero"/><path fill="rgb(100%, 74.899292%, 0.779724%)" d="M 186.675781 345.078125 C 185.488281 344.199219 184.300781 344.25 183.0625 345.023438 C 182.132812 345.230469 181.203125 345.335938 180.480469 346.058594 C 178.621094 346.316406 178.3125 347.605469 178.417969 349.15625 C 177.074219 349.980469 177.023438 351.066406 177.898438 352.253906 C 178.46875 353.957031 178.984375 355.710938 180.480469 356.898438 C 181.152344 358.136719 182.441406 358.085938 183.578125 358.449219 C 183.734375 358.449219 183.941406 358.449219 184.09375 358.5 C 187.039062 358.601562 189.824219 358.34375 191.117188 355.144531 C 191.734375 353.59375 192.25 351.941406 192.304688 350.238281 C 191.0625 347.8125 189.359375 345.902344 186.675781 345.078125 Z M 186.675781 345.078125 " fill-opacity="1" fill-rule="nonzero"/><g clip-path="url(#clip-0)"><path fill="rgb(100%, 74.899292%, 0.779724%)" d="M 358.480469 66.289062 C 364.519531 63.035156 370.613281 59.734375 376.652344 56.429688 C 378.097656 56.171875 379.492188 55.550781 380.78125 54.878906 C 381.761719 54.878906 382.847656 55.035156 383.363281 53.847656 C 387.441406 51.832031 391.519531 49.769531 395.597656 47.808594 C 396.371094 47.445312 397.558594 47.289062 397.09375 46.207031 C 396.628906 45.121094 395.496094 45.535156 394.667969 46 C 390.074219 48.375 385.117188 49.976562 380.78125 52.816406 C 379.90625 52.761719 379.128906 52.917969 378.71875 53.847656 C 377.273438 53.898438 376.910156 55.601562 375.621094 55.914062 C 374.585938 56.273438 373.554688 56.6875 372.523438 56.945312 C 368.652344 57.875 365.089844 59.578125 361.679688 61.589844 C 360.648438 61.644531 360.082031 62.3125 359.617188 63.140625 C 358.894531 63.757812 358.171875 64.328125 357.5 65 C 357.136719 65.359375 356.363281 65.773438 356.828125 66.445312 C 357.34375 67.0625 357.964844 66.546875 358.480469 66.289062 Z M 358.480469 66.289062 " fill-opacity="1" fill-rule="nonzero"/></g><path fill="rgb(100%, 74.899292%, 0.779724%)" d="M 23.027344 174.707031 C 21.996094 173.878906 20.964844 173.878906 19.929688 174.65625 C 18.898438 175.273438 17.917969 176.101562 18.539062 177.289062 C 19.261719 178.734375 20.34375 179.972656 22.304688 179.816406 C 24.007812 179.714844 24.988281 178.628906 25.453125 177.289062 C 26.125 175.222656 23.804688 175.636719 23.027344 174.707031 Z M 23.027344 174.707031 " fill-opacity="1" fill-rule="nonzero"/><path fill="rgb(100%, 74.899292%, 0.779724%)" d="M 62.625 249.925781 C 60.507812 249.050781 58.03125 249.308594 56.066406 247.964844 C 55.136719 247.035156 54.003906 247.605469 52.96875 247.449219 C 52.144531 247.65625 50.957031 246.105469 50.59375 247.605469 C 50.285156 248.894531 51.523438 249.410156 52.765625 249.515625 C 53.433594 249.566406 54.105469 249.824219 54.777344 249.824219 C 57.511719 249.773438 59.578125 252.613281 62.519531 251.578125 C 63.089844 251.375 63.914062 251.578125 63.964844 250.855469 C 64.019531 250.082031 63.140625 250.132812 62.625 249.925781 Z M 62.625 249.925781 " fill-opacity="1" fill-rule="nonzero"/><path fill="rgb(100%, 74.899292%, 0.779724%)" d="M 143.207031 146.726562 C 144.859375 146.570312 146.667969 145.796875 146.667969 143.988281 C 146.667969 142.285156 144.964844 141.40625 143.363281 141.457031 C 141.816406 141.457031 140.628906 142.335938 140.679688 143.628906 C 140.730469 145.847656 141.503906 146.878906 143.207031 146.726562 Z M 143.207031 146.726562 " fill-opacity="1" fill-rule="nonzero"/><path fill="rgb(100%, 74.899292%, 0.779724%)" d="M 216.101562 92.15625 C 217.546875 89.675781 219.613281 87.765625 221.472656 85.753906 C 221.625 85.597656 221.625 85.289062 221.730469 85.03125 C 221.210938 83.53125 220.230469 83.894531 219.355469 84.566406 C 216.980469 86.371094 216.152344 89.316406 214.757812 91.792969 C 214.65625 91.949219 214.8125 92.359375 214.914062 92.414062 C 215.378906 92.621094 215.894531 92.515625 216.101562 92.15625 Z M 216.101562 92.15625 " fill-opacity="1" fill-rule="nonzero"/><path fill="rgb(100%, 74.899292%, 0.779724%)" d="M 246.558594 4.800781 C 247.59375 6.558594 248.832031 5.730469 249.710938 4.851562 C 250.742188 3.769531 250.792969 2.167969 249.65625 1.136719 C 248.316406 0 247.335938 1.03125 246.558594 2.21875 C 245.785156 3.097656 245.785156 3.921875 246.558594 4.800781 Z M 246.558594 4.800781 " fill-opacity="1" fill-rule="nonzero"/><path fill="rgb(100%, 74.899292%, 0.779724%)" d="M 189.773438 59.011719 C 189.929688 59.164062 190.136719 59.371094 190.289062 59.527344 C 191.167969 60.25 191.992188 60.300781 192.871094 59.527344 C 193.027344 59.371094 193.234375 59.164062 193.386719 59.011719 C 194.214844 57.976562 194.160156 56.945312 193.386719 55.914062 C 191.890625 53.949219 190.804688 54.929688 189.773438 56.429688 C 189 57.304688 189 58.132812 189.773438 59.011719 Z M 189.773438 59.011719 " fill-opacity="1" fill-rule="nonzero"/><path fill="rgb(100%, 74.899292%, 0.779724%)" d="M 90.398438 189.007812 C 90.398438 188.078125 89.777344 186.21875 88.847656 186.425781 C 87.402344 186.734375 86.628906 188.441406 86.164062 189.832031 C 85.855469 190.660156 86.785156 191.074219 87.765625 191.125 C 88.847656 190.8125 90.398438 190.503906 90.398438 189.007812 Z M 90.398438 189.007812 " fill-opacity="1" fill-rule="nonzero"/><path fill="rgb(100%, 74.899292%, 0.779724%)" d="M 80.898438 213.53125 C 81.15625 214.667969 81.621094 216.007812 83.117188 215.855469 C 83.996094 215.800781 85.183594 215.285156 84.976562 214.253906 C 84.71875 213.015625 83.738281 212.035156 82.449219 211.828125 C 81.3125 211.929688 80.691406 212.550781 80.898438 213.53125 Z M 80.898438 213.53125 " fill-opacity="1" fill-rule="nonzero"/><path fill="rgb(100%, 74.899292%, 0.779724%)" d="M 45.175781 220.085938 C 44.144531 220.191406 43.625 220.757812 43.730469 221.789062 C 43.832031 223.03125 44.761719 223.234375 45.792969 223.132812 C 46.722656 223.082031 47.394531 222.617188 47.5 221.738281 C 47.136719 220.449219 46.414062 219.984375 45.175781 220.085938 Z M 45.175781 220.085938 " fill-opacity="1" fill-rule="nonzero"/><path fill="rgb(100%, 74.899292%, 0.779724%)" d="M 268.757812 99.796875 C 267.261719 102.015625 265.144531 103.667969 262.976562 105.9375 C 265.195312 105.371094 266.746094 104.082031 269.273438 100.828125 C 271.132812 98.246094 273.972656 96.492188 275.46875 93.601562 C 276.089844 93.601562 276.605469 93.289062 277.019531 92.824219 C 277.378906 92.359375 278.359375 91.898438 277.585938 91.226562 C 276.964844 90.710938 276.089844 91.019531 275.675781 91.84375 C 275.519531 92.207031 275.519531 92.671875 275.46875 93.082031 C 273.042969 95.097656 270.773438 97.367188 268.757812 99.796875 Z M 268.757812 99.796875 " fill-opacity="1" fill-rule="nonzero"/><path fill="rgb(100%, 74.899292%, 0.779724%)" d="M 173.511719 303.980469 C 172.839844 305.117188 173.976562 305.738281 174.804688 306.304688 C 175.578125 307.078125 176.402344 307.027344 177.023438 306.253906 C 177.640625 305.480469 177.695312 304.496094 176.867188 303.722656 C 175.679688 303.207031 174.339844 302.585938 173.511719 303.980469 Z M 173.511719 303.980469 " fill-opacity="1" fill-rule="nonzero"/><path fill="rgb(100%, 74.899292%, 0.779724%)" d="M 102.425781 168.925781 C 103.355469 168.976562 104.027344 168.511719 104.335938 167.632812 C 104.078125 166.601562 103.355469 166.035156 102.375 165.980469 C 101.445312 165.929688 101.03125 166.601562 101.03125 167.480469 C 101.03125 168.355469 101.496094 168.871094 102.425781 168.925781 Z M 102.425781 168.925781 " fill-opacity="1" fill-rule="nonzero"/><path fill="rgb(100%, 74.899292%, 0.779724%)" d="M 99.484375 129.789062 C 98.554688 129.738281 97.988281 130.203125 97.933594 131.132812 C 97.832031 132.21875 98.65625 132.320312 99.484375 132.320312 C 100.359375 132.320312 101.394531 132.21875 101.394531 131.132812 C 101.34375 130.050781 100.308594 129.84375 99.484375 129.789062 Z M 99.484375 129.789062 " fill-opacity="1" fill-rule="nonzero"/><path fill="rgb(100%, 74.899292%, 0.779724%)" d="M 321.722656 65.464844 C 321.984375 65.050781 321.929688 64.585938 321.464844 64.328125 C 321.15625 64.171875 320.640625 64.222656 320.589844 64.535156 C 320.277344 66.238281 318.214844 67.375 319.144531 69.75 C 320.125 68.199219 320.949219 66.855469 321.722656 65.464844 Z M 321.722656 65.464844 " fill-opacity="1" fill-rule="nonzero"/><path fill="rgb(100%, 74.899292%, 0.779724%)" d="M 44.195312 145.226562 C 44.917969 145.175781 45.484375 144.96875 45.589844 143.988281 C 45.226562 143.421875 44.761719 142.644531 43.9375 142.75 C 43.058594 142.800781 42.234375 143.367188 42.386719 144.351562 C 42.492188 145.277344 43.417969 145.226562 44.195312 145.226562 Z M 44.195312 145.226562 " fill-opacity="1" fill-rule="nonzero"/><path fill="rgb(100%, 74.899292%, 0.779724%)" d="M 65.515625 243.421875 C 64.585938 243.527344 64.328125 244.25 64.328125 245.074219 C 64.328125 245.695312 64.378906 246.367188 65.207031 246.3125 C 66.132812 246.210938 66.652344 245.539062 66.855469 244.609375 C 66.703125 243.886719 66.339844 243.320312 65.515625 243.421875 Z M 65.515625 243.421875 " fill-opacity="1" fill-rule="nonzero"/><path fill="rgb(100%, 74.899292%, 0.779724%)" d="M 54.210938 233.511719 C 54.828125 233.511719 55.5 233.457031 55.398438 232.632812 C 55.34375 231.804688 54.726562 231.546875 53.949219 231.496094 C 53.28125 231.546875 52.503906 231.703125 52.609375 232.582031 C 52.765625 233.40625 53.539062 233.511719 54.210938 233.511719 Z M 54.210938 233.511719 " fill-opacity="1" fill-rule="nonzero"/><path fill="rgb(100%, 74.899292%, 0.779724%)" d="M 287.910156 31.800781 C 288.582031 31.957031 288.738281 31.441406 288.890625 30.820312 C 288.738281 30.148438 288.375 29.582031 287.550781 29.632812 C 286.980469 29.632812 286.515625 29.945312 286.515625 30.5625 C 286.515625 31.441406 287.238281 31.648438 287.910156 31.800781 Z M 287.910156 31.800781 " fill-opacity="1" fill-rule="nonzero"/><path fill="rgb(100%, 74.899292%, 0.779724%)" d="M 111.355469 179.25 C 111.925781 179.25 112.285156 178.886719 112.234375 178.269531 C 112.078125 177.597656 111.667969 177.238281 110.996094 177.289062 C 110.324219 177.339844 109.859375 177.753906 109.910156 178.425781 C 109.910156 179.457031 110.738281 179.300781 111.355469 179.25 Z M 111.355469 179.25 " fill-opacity="1" fill-rule="nonzero"/><path fill="rgb(100%, 74.899292%, 0.779724%)" d="M 158.023438 269.441406 C 158.59375 269.289062 159.160156 269.082031 159.210938 268.308594 C 159.003906 267.480469 158.386719 267.585938 157.765625 267.636719 C 157.199219 267.636719 156.734375 267.894531 156.992188 268.566406 C 157.199219 268.976562 157.355469 269.597656 158.023438 269.441406 Z M 158.023438 269.441406 " fill-opacity="1" fill-rule="nonzero"/><path fill="rgb(100%, 74.899292%, 0.779724%)" d="M 107.125 173.878906 C 107.019531 173.46875 106.96875 172.796875 106.246094 173.003906 C 105.625 173.210938 105.421875 173.878906 105.316406 174.449219 C 105.214844 175.015625 105.679688 175.121094 106.144531 175.121094 C 106.96875 175.121094 107.175781 174.601562 107.125 173.878906 Z M 107.125 173.878906 " fill-opacity="1" fill-rule="nonzero"/><path fill="rgb(100%, 74.899292%, 0.779724%)" d="M 266.230469 108.675781 C 266.28125 108.984375 266.332031 109.398438 266.796875 109.347656 C 267.519531 109.242188 267.675781 108.675781 267.726562 108.054688 C 267.726562 107.589844 267.570312 107.230469 267.003906 107.230469 C 266.382812 107.539062 266.175781 108.054688 266.230469 108.675781 Z M 266.230469 108.675781 " fill-opacity="1" fill-rule="nonzero"/><path fill="rgb(100%, 74.899292%, 0.779724%)" d="M 195.96875 337.796875 C 194.988281 335.578125 193.335938 335.371094 191.324219 336.25 C 190.859375 336.453125 190.496094 336.816406 190.289062 337.28125 C 189.929688 337.125 189.617188 336.917969 189.257812 336.765625 C 187.8125 335.421875 187.449219 332.738281 184.609375 333.152344 C 183.734375 333.253906 182.753906 332.789062 182.03125 333.667969 C 181.667969 334.027344 181.359375 334.339844 180.996094 334.699219 C 180.378906 335.265625 179.863281 336.042969 178.933594 335.007812 C 178.3125 334.339844 177.539062 333.769531 176.816406 333.152344 C 176.453125 332.789062 176.144531 332.480469 175.785156 332.117188 C 175.265625 331.445312 174.441406 331.34375 173.769531 331.1875 C 169.640625 330.207031 165.769531 332.632812 165.511719 336.25 C 164.167969 338.054688 166.128906 339.035156 166.542969 340.378906 C 166.699219 341.980469 167.988281 342.339844 169.125 342.960938 C 170.929688 344.457031 173.617188 344.457031 175.835938 342.910156 C 176.351562 342.03125 177.023438 341.359375 177.898438 340.84375 C 179.140625 340.328125 178.933594 339.242188 178.933594 338.261719 C 180.429688 338.160156 180.378906 339.964844 181.515625 340.328125 C 182.855469 342.597656 184.714844 342.1875 186.675781 341.359375 C 187.761719 341.359375 188.792969 341.257812 189.773438 341.875 C 190.136719 342.546875 190.652344 343.0625 191.324219 343.425781 C 192.355469 344.199219 193.386719 344.199219 194.417969 343.371094 C 194.730469 342.703125 195.246094 342.1875 195.96875 341.824219 C 197.980469 340.535156 196.640625 339.191406 195.96875 337.796875 Z M 178.933594 338.3125 Z M 178.933594 338.3125 " fill-opacity="1" fill-rule="nonzero"/><path fill="rgb(100%, 74.899292%, 0.779724%)" d="M 115.332031 162.160156 C 115.382812 161.644531 115.125 161.386719 114.609375 161.335938 C 114.09375 161.386719 113.628906 161.542969 113.679688 162.214844 C 113.730469 162.625 113.886719 163.089844 114.351562 163.140625 C 114.96875 163.140625 115.28125 162.675781 115.332031 162.160156 Z M 115.332031 162.160156 " fill-opacity="1" fill-rule="nonzero"/><path fill="rgb(100%, 74.899292%, 0.779724%)" d="M 106.144531 332.117188 C 105.472656 331.808594 104.800781 331.34375 104.078125 331.1875 C 102.734375 330.929688 101.136719 331.136719 100.773438 332.480469 C 100.308594 334.234375 101.1875 335.886719 102.632812 337.175781 C 103.976562 338.3125 105.265625 338.675781 106.660156 337.332031 C 107.589844 335.421875 107.589844 333.71875 106.144531 332.117188 Z M 106.144531 332.117188 " fill-opacity="1" fill-rule="nonzero"/><path fill="rgb(100%, 74.899292%, 0.779724%)" d="M 162.929688 277.910156 C 162.566406 277.703125 162.15625 277.546875 161.792969 277.339844 C 160.347656 276.566406 158.902344 276.722656 157.820312 277.804688 C 156.683594 278.941406 157.765625 280.234375 158.078125 281.316406 C 158.28125 281.988281 159.210938 282.503906 159.832031 283.074219 C 160.65625 284.414062 161.742188 284.464844 162.929688 283.589844 C 163.085938 283.433594 163.238281 283.277344 163.445312 283.074219 C 164.375 281.214844 164.375 279.511719 162.929688 277.910156 Z M 162.929688 277.910156 " fill-opacity="1" fill-rule="nonzero"/><path fill="rgb(100%, 74.899292%, 0.779724%)" d="M 140.214844 361.546875 C 139.699219 360.359375 138.613281 360.511719 137.632812 360.511719 C 136.445312 359.636719 135.363281 359.6875 134.535156 361.03125 C 132.574219 362.785156 132.675781 364.179688 135.050781 366.707031 C 135.980469 367.535156 136.910156 368.308594 138.148438 367.226562 C 138.511719 367.070312 138.820312 366.863281 139.183594 366.707031 C 139.699219 366.347656 140.265625 366.039062 140.78125 365.675781 C 141.917969 365.675781 143.207031 365.832031 143.363281 364.128906 C 143.363281 362.011719 142.074219 361.441406 140.214844 361.546875 Z M 140.214844 361.546875 " fill-opacity="1" fill-rule="nonzero"/><path fill="rgb(100%, 74.899292%, 0.779724%)" d="M 321.261719 87.09375 C 320.847656 87.199219 320.484375 87.507812 320.640625 88.023438 C 320.796875 88.488281 321.3125 88.4375 321.722656 88.386719 C 322.136719 88.335938 322.292969 88.074219 322.242188 87.714844 C 322.035156 87.25 321.722656 86.941406 321.261719 87.09375 Z M 321.261719 87.09375 " fill-opacity="1" fill-rule="nonzero"/><path fill="rgb(100%, 74.899292%, 0.779724%)" d="M 345.316406 138.929688 C 345.9375 138.980469 346.296875 138.671875 346.503906 138.15625 C 346.503906 137.742188 346.246094 137.535156 345.882812 137.535156 C 345.417969 137.535156 345.058594 137.742188 344.902344 138.207031 C 344.75 138.621094 344.902344 138.878906 345.316406 138.929688 Z M 345.316406 138.929688 " fill-opacity="1" fill-rule="nonzero"/><path fill="rgb(100%, 74.899292%, 0.779724%)" d="M 314.1875 84.824219 C 313.722656 85.183594 313.515625 85.648438 313.980469 86.0625 C 314.445312 86.527344 314.910156 86.269531 315.21875 85.804688 C 315.324219 85.390625 315.890625 84.925781 315.375 84.515625 C 314.960938 84.152344 314.496094 84.410156 314.1875 84.824219 Z M 314.1875 84.824219 " fill-opacity="1" fill-rule="nonzero"/><path fill="rgb(100%, 74.899292%, 0.779724%)" d="M 196.226562 86.628906 C 196.484375 86.527344 196.691406 86.21875 196.847656 86.0625 C 196.792969 85.441406 196.484375 85.390625 196.125 85.390625 C 195.710938 85.441406 195.554688 85.753906 195.554688 86.113281 C 195.554688 86.578125 195.867188 86.785156 196.226562 86.628906 Z M 196.226562 86.628906 " fill-opacity="1" fill-rule="nonzero"/><path fill="rgb(100%, 74.899292%, 0.779724%)" d="M 347.847656 74.757812 C 348.105469 74.703125 348.363281 74.445312 348.570312 74.34375 C 348.621094 73.828125 348.464844 73.515625 348.050781 73.515625 C 347.691406 73.515625 347.382812 73.671875 347.328125 74.085938 C 347.328125 74.445312 347.382812 74.859375 347.847656 74.757812 Z M 347.847656 74.757812 " fill-opacity="1" fill-rule="nonzero"/><path fill="rgb(100%, 74.899292%, 0.779724%)" d="M 196.484375 323.339844 C 195.8125 322.980469 195.296875 322.515625 194.9375 321.792969 C 193.4375 321.019531 191.992188 320.761719 190.804688 322.308594 C 188.894531 324.324219 190.082031 325.820312 191.476562 327.421875 C 193.234375 329.332031 194.523438 327.730469 195.917969 326.957031 C 197.464844 325.921875 197.363281 324.683594 196.484375 323.339844 Z M 196.484375 323.339844 " fill-opacity="1" fill-rule="nonzero"/><path fill="rgb(100%, 74.899292%, 0.779724%)" d="M 228.492188 46.566406 C 228.800781 46.566406 229.214844 46.566406 229.214844 46.101562 C 229.214844 45.636719 228.800781 45.636719 228.492188 45.636719 C 228.183594 45.636719 227.769531 45.691406 227.769531 46.101562 C 227.71875 46.566406 228.128906 46.566406 228.492188 46.566406 Z M 228.492188 46.566406 " fill-opacity="1" fill-rule="nonzero"/><path fill="rgb(100%, 74.899292%, 0.779724%)" d="M 70.265625 128.605469 C 70.625 128.65625 70.882812 128.398438 70.882812 127.984375 C 70.78125 127.621094 70.574219 127.363281 70.160156 127.46875 C 69.800781 127.570312 69.59375 127.828125 69.695312 128.191406 C 69.800781 128.449219 70.058594 128.605469 70.265625 128.605469 Z M 70.265625 128.605469 " fill-opacity="1" fill-rule="nonzero"/><path fill="rgb(100%, 74.899292%, 0.779724%)" d="M 215.171875 98.09375 C 215.019531 98.144531 214.8125 98.453125 214.863281 98.660156 C 214.914062 99.019531 215.222656 99.226562 215.585938 99.125 C 215.742188 99.074219 215.84375 98.816406 215.945312 98.660156 C 215.792969 98.246094 215.585938 97.886719 215.171875 98.09375 Z M 215.171875 98.09375 " fill-opacity="1" fill-rule="nonzero"/><path fill="rgb(100%, 74.899292%, 0.779724%)" d="M 150.023438 352.253906 C 149.507812 351.738281 148.992188 351.21875 148.472656 350.703125 C 147.441406 349.929688 146.410156 349.929688 145.378906 350.703125 C 143.726562 351.476562 142.539062 352.460938 143.15625 354.574219 C 144.191406 357.984375 146.976562 358.292969 150.023438 355.351562 C 150.796875 354.316406 150.796875 353.285156 150.023438 352.253906 Z M 150.023438 352.253906 " fill-opacity="1" fill-rule="nonzero"/><path fill="rgb(100%, 74.899292%, 0.779724%)" d="M 133.503906 346.058594 C 135.050781 348.019531 136.601562 346.832031 138.148438 346.058594 C 138.511719 345.386719 138.820312 344.714844 139.183594 343.992188 C 140.007812 342.960938 140.007812 341.925781 139.183594 340.894531 C 137.53125 339.65625 135.929688 337.953125 133.554688 339.347656 C 132.574219 339.398438 132.058594 339.914062 132.007812 340.894531 C 131.59375 341.101562 131.492188 341.515625 131.492188 341.925781 C 130.457031 342.910156 131.179688 343.476562 132.007812 343.992188 C 131.902344 345.078125 131.851562 346.210938 133.503906 346.058594 Z M 131.953125 343.992188 Z M 131.953125 343.992188 " fill-opacity="1" fill-rule="nonzero"/><path fill="rgb(100%, 74.899292%, 0.779724%)" d="M 126.792969 74.292969 C 127.152344 74.394531 127.410156 74.136719 127.566406 73.722656 C 127.464844 73.570312 127.308594 73.3125 127.152344 73.257812 C 126.792969 73.15625 126.535156 73.414062 126.484375 73.773438 C 126.429688 73.929688 126.636719 74.238281 126.792969 74.292969 Z M 126.792969 74.292969 " fill-opacity="1" fill-rule="nonzero"/><path fill="rgb(100%, 74.899292%, 0.779724%)" d="M 283.730469 88.4375 C 284.195312 89.882812 284.917969 91.433594 286.671875 90.710938 C 288.480469 89.933594 287.859375 88.335938 287.136719 86.992188 C 286.828125 86.476562 286.570312 85.90625 286.308594 85.390625 C 285.433594 84.617188 284.605469 84.617188 283.730469 85.390625 C 282.953125 86.371094 282.953125 87.40625 283.730469 88.4375 Z M 283.730469 88.4375 " fill-opacity="1" fill-rule="nonzero"/><path fill="rgb(100%, 74.899292%, 0.779724%)" d="M 81.261719 200.832031 C 81.105469 200.777344 80.742188 200.933594 80.691406 201.089844 C 80.484375 201.5 80.796875 201.707031 81.105469 201.8125 C 81.261719 201.863281 81.519531 201.757812 81.671875 201.707031 C 81.777344 201.191406 81.621094 200.933594 81.261719 200.832031 Z M 81.261719 200.832031 " fill-opacity="1" fill-rule="nonzero"/><path fill="rgb(100%, 74.899292%, 0.779724%)" d="M 83.945312 199.4375 C 83.996094 200.105469 84.359375 200.46875 84.976562 200.519531 C 85.339844 201.914062 86.113281 201.707031 87.042969 201.035156 C 88.332031 200.367188 89.882812 199.796875 89.777344 198.042969 C 89.726562 196.492188 88.230469 196.082031 87.042969 195.667969 C 85.75 195.203125 84.824219 196.132812 83.894531 196.855469 C 83.171875 197.734375 83.171875 198.558594 83.945312 199.4375 Z M 83.945312 199.4375 " fill-opacity="1" fill-rule="nonzero"/><path fill="rgb(100%, 74.899292%, 0.779724%)" d="M 265.867188 334.183594 C 262.875 334.183594 259.828125 337.539062 260.035156 340.585938 C 260.136719 342.445312 263.648438 345.542969 265.609375 345.542969 C 269.171875 345.542969 271.804688 343.011719 271.90625 339.757812 C 271.957031 336.867188 268.140625 334.183594 265.867188 334.183594 Z M 265.867188 334.183594 " fill-opacity="1" fill-rule="nonzero"/><path fill="rgb(100%, 74.899292%, 0.779724%)" d="M 336.59375 366.707031 C 333.648438 366.761719 330.757812 369.339844 330.863281 371.871094 C 330.964844 373.574219 333.546875 375.484375 335.871094 375.484375 C 338.605469 375.484375 340.929688 373.472656 340.980469 371.097656 C 341.03125 368.773438 338.914062 366.707031 336.59375 366.707031 Z M 336.59375 366.707031 " fill-opacity="1" fill-rule="nonzero"/><path fill="rgb(100%, 74.899292%, 0.779724%)" d="M 340.722656 182.914062 C 340.050781 182.863281 339.171875 183.171875 338.8125 182.089844 C 339.792969 181.574219 341.394531 181.261719 341.601562 180.539062 C 341.960938 179.351562 340 179.042969 339.585938 177.960938 C 339.484375 177.648438 339.277344 177.339844 339.019531 177.082031 C 336.746094 174.34375 334.269531 173.621094 330.914062 174.863281 C 327.609375 176.050781 324.769531 180.953125 326.371094 183.277344 C 328.125 185.804688 326.835938 185.652344 324.976562 185.546875 C 324.304688 184.773438 323.375 185.136719 322.550781 185.03125 C 317.441406 184.359375 312.898438 186.734375 308.097656 187.714844 C 306.496094 188.027344 305.875 187.921875 305.875 186.839844 C 305.925781 186.582031 305.925781 186.324219 305.980469 186.066406 C 305.980469 186.011719 305.980469 185.910156 306.03125 185.859375 C 306.445312 183.742188 306.082031 181.832031 304.378906 180.386719 C 303.964844 179.714844 302.726562 179.609375 302.933594 178.476562 C 303.035156 177.90625 303.449219 177.960938 303.914062 178.0625 C 307.992188 178.941406 310.265625 175.273438 313.566406 174.140625 C 313.671875 174.085938 313.671875 173.828125 313.722656 173.675781 C 314.753906 173.46875 315.683594 172.953125 316.820312 173.621094 C 318.628906 174.757812 318.988281 173.675781 318.886719 172.074219 C 320.433594 171.246094 322.085938 170.472656 319.761719 168.613281 C 319.660156 168.5625 319.867188 168.148438 319.917969 167.890625 C 320.332031 166.960938 321.261719 166.808594 321.984375 166.34375 C 322.808594 166.238281 323.53125 165.980469 324.046875 165.308594 C 324.5625 164.226562 325.492188 164.277344 326.472656 164.277344 C 327.507812 164.277344 328.539062 164.125 329.261719 163.246094 C 330.191406 162.882812 331.171875 162.523438 332.101562 162.160156 C 334.527344 161.335938 337.109375 160.355469 339.535156 161.59375 C 342.21875 162.9375 344.695312 163.039062 347.277344 161.695312 C 348.207031 161.335938 348.363281 160.507812 348.3125 159.632812 C 349.34375 157.824219 351.460938 157.667969 352.957031 156.535156 C 354.351562 155.292969 355.28125 153.847656 354.503906 151.886719 C 353.78125 151.320312 354.09375 150.546875 353.988281 149.824219 C 353.9375 148.839844 353.421875 148.324219 352.441406 148.273438 C 351.769531 147.085938 350.632812 146.726562 349.34375 146.726562 C 348.464844 145.949219 347.640625 145.949219 346.761719 146.726562 C 345.316406 146.726562 344.75 144.816406 343.148438 145.175781 C 342.324219 144.195312 341.1875 144.089844 340.050781 144.144531 C 339.636719 144.144531 339.226562 144.039062 339.019531 143.628906 C 338.503906 142.957031 337.984375 142.234375 337.46875 141.5625 C 337.519531 140.683594 337.367188 139.859375 336.4375 139.496094 C 335.765625 138.980469 335.09375 138.464844 334.371094 137.949219 C 331.480469 135.46875 329.984375 132.476562 330.757812 128.605469 C 330.914062 127.878906 331.070312 127.105469 331.121094 126.332031 C 331.222656 124.523438 331.84375 122.667969 330.757812 120.910156 C 330.398438 120.394531 330.085938 119.878906 329.726562 119.363281 C 329.003906 118.484375 328.023438 118.949219 327.144531 118.847656 C 326.421875 117.96875 325.441406 118.433594 324.5625 118.328125 C 323.996094 118.328125 323.375 118.433594 323.015625 117.8125 C 322.707031 117.089844 322.1875 116.574219 321.464844 116.265625 C 320.796875 115.953125 320.433594 115.488281 320.433594 114.714844 C 320.277344 113.476562 318.988281 112.496094 319.402344 111.101562 C 320.949219 110.429688 322.5 109.707031 324.046875 109.035156 C 325.027344 109.035156 326.113281 109.191406 326.628906 108.003906 C 330.707031 105.992188 334.785156 103.925781 338.863281 101.964844 C 339.636719 101.601562 340.824219 101.449219 340.359375 100.363281 C 339.894531 99.277344 338.761719 99.691406 337.933594 100.15625 C 333.339844 102.53125 328.382812 104.132812 324.046875 106.972656 C 323.171875 106.921875 322.394531 107.074219 321.984375 108.003906 C 320.484375 108.160156 319.609375 110.121094 317.851562 109.554688 C 317.699219 109.554688 317.542969 109.554688 317.335938 109.554688 C 317.128906 108.519531 316.613281 107.539062 316.820312 106.457031 C 317.75 106.042969 317.902344 105.269531 317.851562 104.390625 C 318.523438 102.894531 319.402344 101.601562 320.484375 100.363281 C 321.519531 99.226562 322.707031 97.988281 321.984375 96.128906 C 321.464844 95.304688 320.898438 94.582031 319.917969 95.613281 C 319.402344 95.71875 318.78125 95.613281 318.472656 95.921875 C 315.632812 98.816406 312.585938 101.5 310.210938 104.75 C 309.644531 105.527344 309.078125 106.558594 310.109375 107.488281 C 311.605469 108.46875 312.535156 109.707031 312.175781 111.617188 C 311.710938 111.824219 311.347656 112.132812 311.140625 112.652344 C 310.316406 112.753906 309.59375 113.011719 309.078125 113.683594 C 307.890625 114.714844 306.648438 115.128906 305.464844 113.683594 C 304.636719 112.03125 303.089844 112.804688 301.847656 112.652344 C 300.972656 111.875 300.144531 111.875 299.269531 112.652344 C 297.71875 113.0625 296.324219 113.578125 295.65625 115.230469 C 295.085938 116.109375 294.984375 117.605469 293.226562 117.039062 C 292.96875 116.9375 292.453125 117.554688 292.039062 117.8125 C 291.523438 117.96875 291.007812 118.175781 290.492188 118.328125 C 290.441406 118.382812 290.390625 118.433594 290.335938 118.484375 C 290.390625 118.433594 290.441406 118.382812 290.492188 118.328125 C 287.394531 119.207031 284.296875 118.792969 281.148438 118.328125 C 281.25 118.433594 281.40625 118.484375 281.507812 118.585938 C 281.355469 118.585938 281.199219 118.484375 281.148438 118.328125 C 280.632812 118.328125 280.117188 118.328125 279.652344 118.328125 C 278.773438 118.328125 277.894531 118.328125 277.070312 118.328125 C 276.707031 117.402344 275.882812 117.246094 275.003906 117.296875 C 273.765625 116.007812 273.199219 114.820312 275.46875 113.941406 C 275.726562 113.839844 275.882812 113.425781 276.039062 113.117188 C 277.535156 111.824219 279.082031 110.636719 280.167969 108.984375 C 280.839844 108.984375 281.304688 108.625 281.714844 108.210938 C 284.246094 105.472656 287.238281 103.410156 290.59375 101.757812 C 291.78125 101.1875 292.761719 100.363281 293.640625 99.433594 C 294.003906 99.019531 294.777344 98.609375 294.261719 97.9375 C 293.898438 97.421875 293.125 97.574219 292.558594 97.730469 C 291.523438 98.039062 290.648438 98.503906 290.078125 99.484375 C 289.667969 100.261719 289.097656 100.878906 288.324219 101.292969 C 284.195312 103.511719 280.320312 106.25 276.554688 108.984375 C 276.039062 109.140625 275.519531 109.347656 275.003906 109.5 C 273.972656 109.65625 272.835938 109.089844 271.90625 110.019531 C 270.925781 110.636719 269.585938 110.535156 268.808594 111.566406 C 267.519531 111.722656 266.847656 112.652344 266.230469 113.632812 C 265.300781 113.683594 264.214844 113.269531 263.542969 114.042969 C 261.6875 116.214844 259.414062 116.367188 256.886719 115.695312 C 254.664062 115.078125 253.632812 113.992188 255.285156 111.773438 C 255.386719 111.617188 255.335938 111.308594 255.335938 111.050781 C 257.609375 109.8125 258.332031 107.644531 258.433594 105.269531 C 258.535156 102.222656 258.433594 99.125 258.433594 96.078125 C 258.433594 95.921875 258.433594 95.769531 258.433594 95.5625 C 258.949219 93.910156 259.980469 93.136719 261.738281 93.496094 C 262.253906 93.601562 262.769531 93.445312 263.078125 92.980469 C 263.441406 92.824219 263.75 92.621094 264.113281 92.464844 C 264.988281 92.359375 265.96875 92.824219 266.695312 91.949219 C 269.429688 90.503906 271.289062 88.386719 271.804688 85.238281 C 272.785156 84.875 272.941406 84.050781 272.886719 83.171875 C 273.042969 81.621094 273.714844 80.074219 272.886719 78.523438 C 273.816406 77.335938 274.851562 75.789062 272.785156 75.066406 C 269.429688 73.828125 267.105469 71.195312 264.113281 69.4375 C 261.117188 67.632812 257.96875 66.753906 254.820312 65.667969 C 253.066406 65.667969 251.359375 65.667969 249.605469 65.667969 C 247.851562 65.617188 247.746094 62.933594 245.835938 63.242188 C 244.445312 63.449219 244.132812 62.625 243.925781 61.589844 C 243.824219 60.714844 244.289062 59.679688 243.359375 59.011719 C 242.171875 57.667969 240.984375 56.273438 239.796875 54.929688 C 239.332031 53.691406 238.195312 53.898438 237.214844 53.847656 C 236.492188 53.847656 235.976562 53.484375 235.667969 52.816406 C 233.964844 51.988281 232.207031 51.988281 230.503906 52.816406 C 228.335938 52.660156 226.273438 52.96875 224.308594 53.847656 C 223.226562 53.898438 222.710938 54.570312 222.246094 55.394531 C 221.472656 56.324219 220.59375 57.152344 220.695312 58.492188 C 219.820312 59.371094 219.355469 60.402344 219.148438 61.589844 C 218.992188 61.746094 218.785156 61.953125 218.632812 62.109375 C 217.652344 63.65625 217.339844 65.464844 217.652344 67.167969 C 218.011719 69.386719 217.703125 72.070312 220.695312 72.949219 C 221.316406 74.292969 222.453125 74.652344 223.792969 74.5 C 224.464844 75.738281 225.753906 75.6875 226.890625 76.046875 C 227.5625 77.441406 228.851562 76.976562 229.988281 77.078125 C 231.691406 77.078125 233.394531 77.078125 235.097656 77.078125 C 238.867188 77.078125 238.609375 77.132812 239.488281 80.695312 C 240.054688 83.066406 237.835938 82.65625 237.214844 83.792969 C 236.804688 83.996094 236.699219 84.410156 236.699219 84.824219 C 235.71875 84.875 235.203125 84.101562 234.582031 83.480469 C 232.621094 81.621094 231.796875 81.675781 229.988281 83.792969 C 229.316406 84.101562 228.75 84.71875 229.007812 85.390625 C 230.144531 87.816406 228.492188 89.316406 227.40625 91.070312 C 226.738281 91.433594 226.21875 91.949219 225.859375 92.621094 C 224.050781 94.066406 223.277344 96.027344 223.277344 98.296875 C 222.863281 98.503906 222.761719 98.917969 222.761719 99.332031 C 221.832031 99.742188 221.675781 100.519531 221.730469 101.394531 C 221.574219 101.550781 221.367188 101.757812 221.210938 101.914062 C 219.613281 103.976562 221.367188 105.734375 221.730469 107.589844 C 220.078125 108.675781 218.269531 107.847656 216.566406 108.109375 C 215.328125 107.074219 213.832031 106.25 213.46875 104.492188 C 213.367188 103.667969 213.109375 102.945312 212.4375 102.429688 C 212.023438 102.429688 211.664062 102.324219 211.402344 101.914062 C 210.941406 100.828125 210.011719 100.726562 209.082031 100.878906 C 207.066406 101.242188 205.105469 100.777344 203.144531 100.878906 C 202.730469 100.570312 202.214844 100.519531 201.800781 100.570312 C 200.71875 100.363281 199.632812 100.207031 198.960938 99.277344 C 198.910156 98.917969 198.757812 98.609375 198.5 98.296875 C 198.136719 97.628906 196.847656 97.886719 196.949219 96.75 C 197.105469 96.285156 197.257812 95.769531 197.363281 95.304688 C 197.671875 93.910156 197.414062 92.671875 195.96875 92.257812 C 194.472656 91.84375 193.59375 92.722656 193.335938 94.167969 C 192.511719 94.839844 192.972656 96.027344 192.304688 96.75 C 191.734375 96.75 191.117188 96.644531 190.753906 97.265625 C 186.726562 100.464844 186.003906 102.636719 187.65625 106.558594 C 187.707031 106.609375 187.707031 106.660156 187.761719 106.660156 C 187.707031 106.609375 187.707031 106.558594 187.65625 106.558594 C 187.707031 107.4375 187.554688 108.261719 186.625 108.625 C 185.28125 107.953125 183.941406 108.46875 182.648438 108.625 C 182.597656 108.625 182.546875 108.625 182.496094 108.625 C 181.980469 107.4375 180.894531 107.644531 179.914062 107.644531 C 179.757812 107.488281 179.605469 107.332031 179.398438 107.125 C 176.402344 105.527344 170.15625 105.992188 167.007812 108.160156 C 164.425781 109.191406 163.546875 111.257812 163.394531 113.839844 C 161.433594 114.820312 161.691406 117.503906 159.730469 118.484375 C 159.210938 117.96875 158.746094 117.453125 158.230469 116.9375 C 154.617188 117.554688 151.054688 118.175781 147.390625 117.453125 C 147.390625 115.386719 147.492188 113.425781 149.714844 112.390625 C 150.4375 112.03125 151.003906 111.617188 151.003906 110.6875 C 151.210938 109.5 150.695312 108.519531 149.972656 107.644531 C 149.714844 106.921875 148.320312 106.921875 148.785156 105.9375 C 149.09375 105.214844 150.023438 105.527344 150.644531 105.578125 C 152.863281 105.835938 154.152344 104.855469 154.410156 102.738281 C 154.875 98.917969 154.617188 95.046875 154.515625 91.226562 C 154.515625 90.710938 154.050781 90.347656 153.585938 90.089844 C 153.121094 88.59375 151.777344 87.765625 151.003906 86.476562 C 150.953125 86.425781 150.902344 86.425781 150.902344 86.371094 C 150.953125 86.425781 150.953125 86.425781 151.003906 86.476562 C 151.003906 85.753906 151.003906 85.082031 151.003906 84.359375 C 151.160156 83.996094 151.367188 83.6875 151.519531 83.328125 C 152.914062 82.757812 153.378906 81.363281 154.101562 80.230469 C 154.722656 79.300781 155.289062 78.265625 156.683594 78.679688 C 157.613281 78.214844 158.800781 77.699219 157.921875 76.511719 C 157.148438 75.425781 155.855469 75.117188 154.566406 76.097656 C 154.050781 76.253906 153.535156 76.460938 153.015625 76.613281 C 152.5 76.460938 151.984375 76.304688 151.46875 76.097656 C 151.105469 76.097656 150.796875 76.097656 150.4375 76.097656 C 148.992188 76.097656 148.214844 74.652344 146.824219 74.550781 C 145.222656 73.773438 144.191406 72.019531 142.175781 71.96875 C 141.402344 71.453125 140.523438 71.402344 139.59375 71.453125 C 138.253906 72.019531 136.960938 72.589844 135.464844 72.484375 C 134.585938 72.328125 133.761719 72.125 132.882812 71.96875 C 131.902344 72.019531 131.386719 72.535156 131.335938 73.515625 C 130.769531 73.980469 130.304688 74.601562 130.507812 75.273438 C 131.230469 77.597656 130.507812 79.609375 129.425781 81.621094 C 129.0625 82.242188 129.269531 83.480469 128.339844 83.378906 C 127.101562 83.222656 127.980469 81.984375 127.722656 81.261719 C 127.671875 81.363281 127.617188 81.417969 127.566406 81.519531 C 127.617188 81.417969 127.671875 81.3125 127.722656 81.261719 C 127.875 80.382812 128.082031 79.558594 128.238281 78.679688 C 127.207031 77.855469 126.171875 77.90625 125.140625 78.679688 C 123.695312 79.710938 123.695312 80.746094 125.140625 81.777344 C 125.503906 82.398438 125.761719 83.066406 125.65625 83.84375 C 125.296875 84.203125 124.984375 84.515625 124.625 84.875 C 123.59375 85.03125 122.558594 85.238281 121.527344 85.390625 C 121.527344 85.238281 121.527344 85.03125 121.527344 84.875 C 120.648438 84.101562 119.824219 84.101562 118.945312 84.875 C 117.863281 85.289062 116.933594 87.199219 115.589844 85.289062 C 114.507812 83.738281 113.320312 84.308594 112.441406 85.238281 C 111.460938 86.320312 110.167969 87.613281 112.234375 89.003906 C 112.285156 89.003906 112.335938 89.058594 112.390625 89.058594 C 112.335938 89.058594 112.285156 89.003906 112.234375 89.003906 C 112.597656 89.726562 113.472656 89.316406 113.988281 89.832031 C 113.679688 90.605469 112.648438 91.070312 112.75 92.101562 C 112.75 92.464844 112.75 92.773438 112.75 93.136719 C 112.597656 93.289062 112.390625 93.496094 112.234375 93.652344 C 111.253906 93.703125 110.738281 94.21875 110.6875 95.199219 C 110.273438 95.40625 110.167969 95.820312 110.167969 96.234375 C 109.136719 96.179688 108.257812 96.441406 107.589844 97.265625 C 104.542969 97.886719 101.394531 99.074219 98.710938 97.164062 C 98.191406 96.75 97.675781 96.285156 97.210938 95.71875 C 95.921875 93.703125 95.355469 95.355469 94.628906 96.234375 C 93.597656 96.179688 92.722656 96.441406 92.050781 97.265625 C 91.378906 97.628906 90.863281 98.144531 90.5 98.816406 C 87.144531 99.949219 86.371094 101.085938 86.371094 105.011719 C 84.925781 107.28125 85.390625 108.726562 87.917969 109.65625 C 88.230469 110.378906 88.746094 110.894531 89.46875 111.207031 C 89.675781 113.632812 88.589844 116.007812 89.46875 118.433594 C 89.105469 118.949219 88.796875 119.464844 88.4375 119.980469 C 87.917969 120.5 87.351562 121.015625 87.816406 121.945312 C 88.640625 121.683594 89.105469 121.167969 89.46875 120.5 C 90.863281 120.5 91.480469 120.960938 90.5 122.304688 C 90.242188 122.667969 89.933594 122.925781 89.625 123.234375 C 89.210938 123.699219 88.847656 124.214844 89.46875 124.730469 C 90.089844 125.300781 90.65625 124.886719 90.964844 124.371094 C 91.585938 123.441406 92.050781 122.460938 92.617188 121.53125 C 94.320312 121.738281 95.972656 122.355469 97.675781 121.996094 C 100.621094 121.324219 104.128906 121.632812 105.523438 117.917969 C 105.679688 117.761719 105.886719 117.554688 106.039062 117.402344 C 107.277344 117.296875 108.414062 117.660156 109.394531 118.433594 C 110.324219 119.105469 111.667969 119.414062 112.183594 118.535156 C 112.855469 117.402344 111.410156 116.882812 110.632812 116.367188 C 107.226562 114.25 106.246094 111.617188 107.640625 107.589844 C 109.242188 107.4375 110.996094 108.054688 112.285156 106.558594 C 112.90625 106.25 113.785156 105.835938 113.886719 106.867188 C 114.09375 108.882812 115.433594 109.191406 116.984375 109.5 C 117.398438 109.554688 117.914062 109.863281 118.015625 110.171875 C 118.738281 112.496094 121.011719 113.632812 122.144531 115.488281 C 123.074219 116.988281 123.59375 116.625 124.675781 116.058594 C 127.101562 114.664062 128.394531 115.027344 130.042969 117.347656 C 130.457031 117.917969 130.972656 118.277344 131.695312 118.484375 C 134.433594 119.105469 136.445312 120.601562 137.632812 123.234375 C 138.667969 125.507812 140.78125 124.679688 142.640625 124.628906 C 143.828125 124.578125 144.292969 123.800781 144.242188 122.71875 C 144.191406 121.632812 144.550781 120.652344 145.6875 120.703125 C 147.082031 120.808594 147.597656 122.304688 147.234375 123.183594 C 146.359375 125.351562 147.855469 126.589844 148.679688 128.035156 C 149.25 129.066406 150.074219 129.996094 150.644531 131.03125 C 152.914062 135.367188 156.21875 138.671875 160.8125 140.582031 C 160.710938 141.71875 159.933594 142.59375 159.574219 143.628906 C 158.746094 145.898438 157.355469 147.242188 154.722656 146.777344 C 153.84375 146.621094 153.015625 146.828125 152.554688 147.808594 C 150.539062 147.964844 149.765625 150.027344 148.164062 150.648438 C 146.617188 151.269531 145.636719 151.472656 147.492188 152.921875 C 148.113281 153.382812 148.0625 154.160156 147.699219 154.832031 C 147.339844 155.5 146.824219 155.449219 146.152344 155.242188 C 145.171875 154.882812 144.292969 155.035156 143.777344 156.070312 C 142.484375 156.070312 141.453125 155.8125 141.917969 154.160156 C 142.074219 153.589844 142.125 152.921875 141.609375 152.816406 C 138.5625 152.25 140.164062 150.492188 140.523438 149.046875 C 140.730469 148.222656 140.730469 147.449219 139.851562 147.035156 C 139.128906 146.671875 137.890625 146.570312 137.738281 147.136719 C 137.167969 149.097656 135.980469 150.492188 134.585938 151.679688 C 133.96875 151.9375 133.347656 152.300781 132.9375 153.023438 C 132.78125 153.179688 132.574219 153.382812 132.417969 153.539062 C 131.953125 153.589844 131.644531 153.796875 131.335938 154.160156 C 129.527344 156.535156 129.785156 158.910156 131.386719 161.285156 C 131.953125 163.453125 131.386719 164.125 129.269531 162.882812 C 129.117188 162.78125 128.960938 162.832031 128.753906 162.832031 C 127.875 162.730469 127.410156 163.195312 126.84375 163.8125 C 125.347656 165.570312 123.851562 166.859375 121.164062 167.117188 C 116.570312 167.53125 114.351562 173.15625 117.191406 176.667969 C 118.222656 177.90625 118.378906 178.992188 117.863281 180.335938 C 114.867188 180.59375 116.261719 185.082031 113.113281 185.1875 C 114.351562 186.890625 114.96875 188.851562 116.519531 190.296875 C 117.449219 191.175781 118.273438 192.621094 117.757812 194.066406 C 117.242188 195.460938 115.796875 194.582031 114.816406 194.789062 C 112.390625 193.449219 109.601562 193.652344 107.070312 192.722656 C 106.917969 192.570312 106.710938 192.363281 106.554688 192.207031 C 108.929688 189.316406 108.054688 185.652344 107.226562 183.070312 C 106.089844 179.40625 103.820312 175.945312 102.425781 172.175781 C 102.117188 171.351562 101.703125 171.503906 100.878906 171.660156 C 98.347656 172.175781 95.816406 173.054688 93.132812 172.589844 C 92.566406 171.867188 91.738281 172.230469 91.015625 172.074219 C 89.882812 171.816406 89.105469 171.609375 89.675781 169.855469 C 90.347656 167.945312 90.8125 166.34375 92.980469 165.515625 C 93.90625 165.15625 94.835938 163.761719 93.132812 162.78125 C 92.875 162.316406 92.566406 161.902344 91.996094 161.800781 C 91.015625 161.59375 89.46875 161.59375 89.726562 160.355469 C 89.984375 159.0625 91.585938 158.753906 92.875 158.703125 C 93.132812 158.703125 93.390625 158.804688 93.597656 158.910156 C 95.816406 159.578125 96.644531 158.496094 96.695312 156.429688 C 96.746094 154.570312 96.851562 152.714844 97.109375 150.804688 C 97.574219 147.449219 97.417969 143.9375 94.628906 141.457031 C 92.667969 139.652344 92.980469 138.359375 94.835938 136.96875 C 95.199219 136.710938 95.457031 136.347656 95.765625 136.089844 C 97.003906 135.003906 96.902344 133.558594 96.488281 132.269531 C 96.078125 131.03125 95.042969 130.203125 93.496094 130.253906 C 92.257812 130.308594 91.121094 129.894531 90.449219 128.707031 C 89.261719 127.570312 87.816406 126.796875 86.320312 126.125 C 85.027344 125.300781 83.789062 124.578125 82.242188 125.710938 C 81.519531 126.28125 81.207031 125.710938 81.105469 125.042969 C 81.261719 124.886719 81.414062 124.730469 81.621094 124.523438 C 83.015625 123.699219 83.015625 122.667969 82.136719 121.425781 C 81.726562 121.425781 81.363281 121.324219 81.105469 120.910156 C 79.710938 119.515625 78.164062 119.464844 76.460938 120.394531 C 74.238281 120.859375 74.601562 122.613281 75.21875 123.75 C 75.996094 125.144531 75.789062 125.765625 74.703125 126.691406 C 73.828125 127.46875 73.828125 128.65625 73.878906 129.789062 C 73.929688 131.648438 74.03125 133.558594 73.363281 135.316406 C 71.503906 135.367188 72.175781 133.40625 71.296875 132.734375 C 70.265625 131.960938 69.230469 131.960938 68.199219 132.734375 C 66.753906 133.765625 66.753906 134.796875 68.199219 135.832031 C 69.023438 136.710938 69.023438 137.535156 68.199219 138.414062 C 68.042969 138.566406 67.890625 138.773438 67.683594 138.929688 C 67.527344 138.929688 67.320312 138.929688 67.167969 138.929688 C 66.132812 138.929688 65.101562 138.929688 64.019531 138.929688 C 63.449219 138.980469 62.882812 138.824219 62.46875 139.445312 C 62.109375 139.445312 61.796875 139.445312 61.4375 139.445312 C 60.921875 139.808594 60.402344 140.117188 59.886719 140.476562 C 59.527344 140.324219 59.21875 140.117188 58.855469 139.960938 C 58.390625 139.136719 57.824219 138.464844 56.789062 138.414062 C 55.808594 138.414062 55.292969 138.929688 55.242188 139.960938 C 54.105469 140.992188 54.054688 142.027344 55.242188 143.058594 C 55.191406 144.195312 58.753906 142.59375 56.789062 145.125 C 56.324219 145.382812 56.015625 145.742188 55.808594 146.207031 C 54.675781 148.636719 53.332031 150.648438 50.390625 151.628906 C 48.066406 152.457031 45.589844 152.25 43.367188 153.332031 C 42.851562 153.332031 42.386719 153.125 42.027344 152.714844 C 39.136719 149.359375 39.082031 149.253906 35.367188 151.472656 C 33.664062 152.507812 32.0625 153.847656 30.617188 155.242188 C 29.429688 156.378906 30.308594 158.289062 29.378906 159.578125 C 28.605469 160.613281 28.605469 161.644531 29.378906 162.675781 C 30.875 163.8125 32.835938 164.535156 33.042969 166.808594 C 33.042969 166.960938 32.992188 167.117188 32.992188 167.273438 C 31.90625 169.078125 32.734375 171.042969 32.476562 172.953125 C 32.320312 173.105469 32.113281 173.3125 31.960938 173.46875 C 31.339844 174.035156 30.824219 174.65625 31.132812 175.84375 C 31.804688 175.171875 32.371094 174.601562 32.941406 173.984375 C 33.457031 173.984375 33.972656 173.984375 34.488281 174.035156 C 34.695312 175.121094 33.921875 175.789062 33.457031 176.566406 C 32.628906 176.976562 32.269531 177.597656 32.269531 178.527344 C 33.871094 178.628906 33.972656 177.339844 34.488281 176.566406 C 34.902344 176.359375 35.003906 175.945312 35.003906 175.53125 C 35.882812 174.914062 36.707031 174.964844 37.585938 175.480469 C 37.949219 175.222656 38.308594 175.222656 38.671875 175.222656 C 38.308594 175.328125 37.949219 175.429688 37.585938 175.480469 C 41.5625 176.359375 45.175781 175.84375 47.910156 172.433594 C 49.148438 171.246094 50.390625 171.195312 51.679688 172.332031 C 52.710938 173.261719 53.847656 173.46875 55.136719 172.953125 C 56.015625 172.433594 56.738281 173.003906 57.511719 173.363281 C 59.011719 174.035156 61.851562 173.003906 62.261719 171.453125 C 62.519531 170.421875 62.933594 169.285156 60.765625 169.132812 C 58.753906 168.976562 57.152344 168.613281 56.273438 170.9375 C 56.171875 171.195312 55.550781 171.246094 55.136719 171.402344 C 54.984375 171.246094 54.777344 171.09375 54.621094 170.9375 C 54.261719 169.957031 53.433594 169.800781 52.558594 169.855469 C 49.5625 169.183594 49.925781 166.859375 49.976562 164.691406 C 49.976562 163.8125 49.976562 162.988281 49.976562 162.109375 C 50.132812 161.953125 50.285156 161.75 50.492188 161.59375 C 51.730469 161.542969 53.332031 161.953125 54.15625 161.335938 C 56.222656 159.890625 56.585938 161.230469 57.203125 162.625 C 57.71875 164.484375 59.269531 163.296875 60.300781 163.660156 C 61.746094 165.464844 62.003906 168.355469 64.945312 168.820312 C 64.894531 170.578125 65.617188 171.246094 67.269531 170.265625 C 68.457031 169.542969 69.75 169.234375 71.140625 169.390625 C 71.65625 169.90625 72.175781 170.421875 72.691406 170.9375 C 72.898438 171.402344 73.207031 171.765625 73.722656 171.96875 C 75.425781 172.847656 77.183594 173.675781 78.886719 174.550781 C 80.019531 176.050781 79.660156 178.476562 81.984375 179.199219 C 82.757812 179.300781 83.375 179.042969 84.046875 178.683594 C 85.132812 179.609375 85.957031 179.300781 86.628906 178.164062 L 87.144531 178.164062 C 87.195312 178.113281 87.25 178.0625 87.300781 178.011719 C 87.972656 177.03125 87.558594 174.964844 89.777344 175.585938 C 90.292969 176.976562 88.746094 178.320312 89.777344 179.714844 C 92.050781 183.171875 94.269531 186.582031 96.539062 190.039062 C 98.089844 192.570312 100.929688 193.242188 103.199219 194.6875 C 103.871094 195.511719 105.214844 195.253906 105.78125 196.234375 C 105.421875 197.679688 106.039062 198.660156 107.332031 199.230469 C 108.105469 199.539062 108.828125 199.230469 109.34375 198.609375 C 110.222656 197.628906 109.550781 196.957031 108.878906 196.234375 C 108.878906 195.875 108.878906 195.5625 108.878906 195.203125 C 110.117188 195.460938 111.355469 195.667969 112.597656 196.027344 C 116.621094 197.214844 116.828125 197.886719 114.558594 201.398438 C 113.886719 201.757812 113.371094 202.277344 113.007812 202.945312 C 112.855469 203.101562 112.648438 203.308594 112.492188 203.464844 C 111.410156 203.667969 110.429688 203.980469 109.910156 205.011719 C 108.777344 205.113281 108.519531 203.925781 107.796875 203.464844 C 107.125 202.945312 106.453125 202.429688 105.730469 201.914062 C 104.644531 201.65625 104.078125 200.003906 102.632812 200.882812 C 99.636719 201.035156 96.023438 200.003906 94.011719 202.585938 C 92.773438 204.132812 86.886719 203.464844 90.605469 208.160156 C 90.757812 208.367188 90.347656 208.933594 90.292969 209.347656 C 89.777344 213.117188 90.757812 215.078125 94.269531 216.730469 C 95.09375 217.144531 95.507812 217.558594 95.40625 218.433594 C 95.40625 219.828125 95.40625 221.171875 95.40625 222.566406 C 94.628906 222.976562 93.753906 223.597656 93.804688 224.421875 C 93.960938 227.261719 92.824219 230.207031 94.371094 232.941406 C 93.183594 236.089844 93.648438 237.589844 95.921875 238.105469 C 97.933594 239.550781 100.414062 240.324219 102.117188 242.234375 C 102.734375 243.214844 102.632812 244.300781 102.632812 245.332031 C 102.269531 245.847656 101.960938 246.367188 101.601562 246.882812 C 100.722656 246.882812 99.894531 246.882812 99.019531 246.882812 C 95.972656 245.902344 94.835938 243.113281 93.339844 240.6875 C 93.238281 239.964844 93.183594 239.242188 93.082031 238.464844 C 92.460938 238.671875 91.894531 238.878906 91.273438 239.085938 C 90.292969 239.035156 89.46875 238.519531 88.695312 238.054688 C 87.558594 237.382812 86.679688 236.144531 85.082031 236.503906 C 84.667969 236.296875 84.5625 235.886719 84.5625 235.421875 C 84.925781 234.699219 85.648438 234.128906 85.597656 233.148438 C 85.339844 228.96875 85.390625 228.96875 89.210938 227.675781 C 90.863281 229.277344 89.675781 230.359375 88.382812 231.082031 C 87.507812 231.601562 87.042969 232.011719 87.195312 232.992188 C 87.351562 234.128906 90.8125 236.554688 91.945312 236.402344 C 92.722656 236.296875 93.03125 235.679688 92.824219 235.109375 C 91.585938 231.652344 91.996094 227.933594 90.914062 224.476562 C 90.863281 224.320312 90.8125 224.21875 90.757812 224.0625 C 89.726562 223.390625 88.847656 222.511719 88.179688 221.53125 C 88.589844 220.601562 89.984375 219.675781 88.847656 218.691406 C 87.816406 217.816406 87.25 219.519531 86.371094 219.878906 C 86.269531 219.933594 86.214844 219.933594 86.164062 219.984375 C 86.007812 219.984375 85.855469 219.984375 85.648438 219.933594 C 84.824219 219.210938 83.945312 219.210938 83.066406 219.933594 C 81.984375 220.035156 80.847656 219.777344 79.96875 220.707031 C 78.9375 221.789062 77.699219 221.789062 76.511719 220.914062 C 75.890625 220.5 75.21875 220.550781 74.550781 220.449219 C 69.851562 219.878906 68.300781 224.0625 65.566406 226.386719 C 64.019531 227.675781 65.101562 229.742188 64.484375 231.289062 C 63.707031 232.324219 63.707031 233.355469 64.484375 234.386719 C 65.566406 236.8125 65.773438 239.859375 69.128906 240.582031 C 69.285156 240.6875 69.386719 240.789062 69.542969 240.789062 C 70.058594 241.046875 70.625 241.359375 71.140625 241.617188 C 71.140625 242.132812 71.140625 242.648438 71.195312 243.164062 C 70.109375 244.144531 70.058594 245.332031 70.367188 246.675781 C 70.675781 248.015625 71.296875 249.464844 70.472656 250.804688 C 70.210938 251.21875 69.695312 251.527344 70.160156 252.097656 C 70.625 252.664062 71.246094 253.078125 71.96875 252.714844 C 73.773438 251.835938 75.273438 252.765625 76.871094 253.386719 C 76.976562 254.367188 75.066406 254.882812 76.253906 256.019531 C 77.234375 256.949219 77.699219 255.605469 78.421875 255.453125 C 80.640625 255.246094 82.914062 252.972656 85.132812 255.503906 C 85.75 257.050781 86.679688 256.691406 87.714844 255.96875 C 89.3125 256.949219 91.480469 255.863281 92.875 257.515625 C 92.875 258.550781 92.875 259.582031 92.875 260.613281 C 91.121094 262.058594 92.617188 264.125 91.84375 265.777344 C 90.449219 266.65625 90.5 267.480469 91.84375 268.359375 C 92.308594 269.183594 92.875 269.855469 93.90625 269.90625 C 94.269531 270.578125 94.628906 271.25 94.941406 271.972656 C 94.578125 274.140625 96.023438 274.140625 97.523438 274.039062 C 99.792969 274.8125 100.773438 276.671875 101.652344 278.683594 C 101.753906 279.5625 101.289062 280.542969 102.167969 281.265625 C 102.167969 282.8125 102.167969 284.363281 102.167969 285.910156 C 100.257812 287.046875 100.566406 289.527344 98.96875 291.023438 C 96.4375 293.398438 94.992188 296.804688 92.359375 299.128906 C 91.636719 299.746094 91.535156 300.832031 92.359375 301.398438 C 93.183594 301.96875 93.703125 301.140625 94.167969 300.472656 C 96.078125 297.632812 98.089844 294.84375 99.894531 292.003906 C 101.34375 289.785156 102.476562 287.71875 105.9375 288.339844 C 108.054688 288.699219 109.964844 289.472656 112.027344 289.992188 C 112.90625 291.382812 113.988281 292.105469 115.640625 291.023438 C 116.15625 290.714844 116.675781 290.714844 117.191406 291.023438 C 117.601562 292.417969 116.417969 293.8125 117.191406 295.617188 C 117.964844 291.28125 121.011719 292.675781 123.488281 292.675781 C 123.953125 292.675781 124.46875 292.933594 124.933594 293.035156 C 125.089844 293.191406 125.296875 293.398438 125.449219 293.550781 C 125.8125 294.429688 126.121094 295.257812 126.484375 296.132812 C 125.296875 297.578125 126.6875 298.042969 127.515625 298.714844 C 127.773438 299.023438 128.03125 299.488281 128.394531 299.644531 C 129.375 300.058594 130.457031 301.761719 131.4375 300.265625 C 132.367188 298.871094 131.128906 297.734375 129.992188 296.910156 C 129.167969 296.289062 128.03125 296.1875 127.566406 295.152344 C 127.410156 293.964844 127.207031 292.726562 127.050781 291.539062 C 127.207031 291.382812 127.359375 291.179688 127.566406 291.023438 C 128.753906 291.074219 129.890625 291.023438 130.664062 289.992188 C 130.820312 289.835938 131.027344 289.679688 131.179688 289.472656 C 133.605469 289.320312 135.570312 289.835938 135.722656 292.828125 C 135.722656 293.089844 136.136719 293.347656 136.34375 293.605469 C 136.550781 294.015625 136.960938 294.121094 137.375 294.121094 C 138.40625 294.894531 139.441406 294.894531 140.472656 294.121094 C 141.195312 293.191406 141.402344 292.417969 139.957031 292.054688 C 139.542969 292.054688 139.128906 291.953125 138.925781 291.589844 C 137.21875 290.867188 135.722656 289.628906 136.03125 287.820312 C 136.34375 286.015625 138.304688 287.253906 139.441406 286.894531 C 140.164062 287.71875 140.988281 288.082031 142.023438 287.410156 C 143.003906 286.53125 143.621094 285.34375 142.691406 284.363281 C 141.300781 282.917969 141.609375 281.316406 141.558594 279.664062 C 142.796875 278.839844 143.878906 277.804688 144.65625 276.566406 C 145.015625 275.894531 145.480469 275.378906 146.203125 275.019531 C 147.082031 275.019531 147.90625 275.019531 148.785156 275.019531 C 149.660156 275.019531 150.488281 275.019531 151.367188 275.019531 C 152.863281 274.863281 153.585938 273.625 153.277344 272.59375 C 152.757812 270.835938 151.417969 269.648438 149.300781 269.855469 C 149.25 268.976562 150.074219 268.511719 150.332031 267.738281 C 150.488281 267.585938 150.695312 267.429688 150.847656 267.222656 C 150.902344 267.171875 150.953125 267.121094 151.003906 267.066406 C 150.953125 267.121094 150.902344 267.171875 150.847656 267.222656 C 153.015625 266.914062 155.648438 268.253906 157.148438 265.726562 C 158.128906 264.023438 159.265625 264.125 160.710938 264.640625 C 162.207031 265.414062 163.652344 265.726562 164.839844 264.125 C 165.199219 263.765625 165.511719 263.453125 165.871094 263.09375 C 167.007812 262.265625 168.246094 261.542969 168.503906 259.996094 C 169.433594 257.050781 171.34375 254.988281 174.183594 253.800781 C 175.472656 253.695312 176.710938 253.488281 177.796875 252.765625 C 178.160156 252.613281 178.46875 252.40625 178.828125 252.25 C 180.378906 252.042969 182.03125 252.765625 183.476562 251.734375 C 183.992188 251.375 184.507812 251.0625 185.023438 250.703125 C 185.179688 250.703125 185.386719 250.703125 185.539062 250.703125 C 187.191406 250.703125 188.84375 250.445312 190.1875 251.734375 C 190.601562 252.664062 191.375 252.820312 192.25 252.765625 C 193.128906 253.542969 193.957031 253.542969 194.832031 252.765625 C 195.402344 252.921875 196.019531 252.097656 196.484375 252.765625 C 196.898438 253.335938 196.226562 253.695312 195.917969 254.007812 C 194.832031 254.988281 194.417969 256.328125 194.367188 257.671875 C 194.160156 261.390625 192.921875 264.433594 189.464844 266.292969 C 189 265.777344 189.050781 264.847656 188.171875 264.589844 C 187.8125 262.316406 188.121094 259.683594 185.023438 258.910156 C 184.507812 258.550781 183.992188 258.238281 183.476562 257.878906 C 182.753906 256.949219 181.773438 257.464844 180.894531 257.363281 C 180.738281 257.257812 180.636719 257.15625 180.480469 257.050781 C 178.105469 255.554688 174.648438 257.105469 173.152344 260.460938 C 170.722656 262.78125 172.324219 268.617188 176.765625 270.269531 C 176.917969 270.421875 177.125 270.628906 177.28125 270.785156 C 177.589844 271.972656 180.070312 271.199219 179.449219 272.902344 C 178.933594 274.296875 178.160156 275.894531 175.988281 275.535156 C 174.699219 275.328125 173.203125 275.226562 172.6875 277.03125 C 171.964844 279.097656 171.394531 281.160156 173.71875 282.710938 C 174.132812 283.640625 174.90625 283.796875 175.785156 283.742188 C 176.816406 284.519531 177.847656 284.519531 178.882812 283.742188 C 180.273438 283.742188 181.566406 282.96875 183.011719 283.226562 C 183.320312 284.257812 185.023438 284.722656 184.351562 286.015625 C 183.683594 287.253906 182.339844 286.117188 181.308594 286.324219 C 180.429688 286.480469 179.449219 286.273438 178.519531 286.171875 C 177.175781 286.015625 175.988281 286.117188 175.214844 287.410156 C 174.339844 287.355469 173.5625 287.511719 173.152344 288.441406 C 172.632812 288.597656 172.117188 288.804688 171.652344 288.957031 C 170.929688 291.125 171.757812 293.242188 172.222656 295.308594 C 172.53125 296.703125 172.789062 298.457031 174.75 298.765625 C 175.371094 299.128906 176.042969 299.335938 176.816406 299.285156 C 178.363281 301.140625 180.585938 302.121094 182.441406 303.621094 C 183.425781 304.394531 184.25 305.273438 183.011719 306.511719 C 182.855469 306.664062 182.648438 306.871094 182.496094 307.027344 C 181.617188 308.316406 179.964844 308.578125 178.882812 309.609375 C 178.726562 309.761719 178.519531 309.96875 178.363281 310.125 C 177.230469 311.210938 176.25 312.859375 174.234375 311.675781 C 172.6875 309.917969 171.136719 310.382812 169.589844 311.675781 C 168.246094 311.726562 167.988281 312.601562 168.039062 313.738281 C 166.027344 316.113281 167.421875 320.039062 170.621094 320.964844 C 172.480469 321.429688 174.542969 322.671875 175.785156 319.933594 C 175.785156 319.210938 176.144531 318.695312 176.816406 318.386719 C 178.570312 317.144531 180.273438 318.59375 182.03125 318.386719 C 183.371094 317.867188 184.765625 317.351562 186.109375 316.835938 C 187.140625 316.886719 188.070312 316.683594 188.691406 315.804688 C 189.050781 315.289062 189.359375 314.769531 189.722656 314.253906 C 190.910156 313.273438 192.097656 312.34375 193.851562 313.171875 C 194.367188 313.429688 195.039062 313.324219 195.453125 312.65625 C 195.605469 312.5 195.761719 312.34375 195.96875 312.136719 C 197.722656 311.777344 199.425781 311.46875 201.183594 311.105469 C 201.75 312.242188 202.164062 313.585938 203.765625 313.6875 C 205.984375 315.03125 207.6875 316.992188 209.441406 318.851562 C 209.597656 319.003906 209.804688 319.210938 209.957031 319.367188 C 211.25 320.964844 212.230469 322.875 214.089844 324.011719 C 214.554688 324.734375 214.707031 325.714844 215.636719 326.078125 C 217.1875 327.160156 218.527344 328.96875 220.800781 327.472656 C 221.109375 327.265625 221.78125 327.625 222.296875 327.679688 C 222.917969 327.730469 223.382812 328.867188 224.050781 328.089844 C 224.722656 327.316406 224.722656 326.078125 224.15625 325.457031 C 222.863281 323.960938 222.65625 322.050781 221.78125 320.449219 C 221.625 320.296875 221.417969 320.089844 221.265625 319.933594 C 221.160156 319.882812 221.109375 319.78125 221.058594 319.726562 C 221.109375 319.78125 221.210938 319.882812 221.265625 319.933594 C 221.058594 318.332031 219.820312 317.25 219.097656 315.957031 C 218.011719 313.945312 216.824219 311.878906 218.683594 309.609375 C 218.839844 309.609375 219.042969 309.609375 219.199219 309.609375 C 221.109375 308.988281 221.472656 307.75 220.75 305.996094 C 220.902344 305.066406 220.4375 303.980469 221.160156 303.105469 C 222.761719 303.773438 222.453125 305.789062 223.84375 306.511719 C 224.621094 307.285156 225.445312 307.957031 226.117188 308.835938 C 228.234375 311.519531 230.144531 314.308594 232.671875 316.578125 C 233.808594 317.609375 235.617188 318.230469 235.925781 319.675781 C 236.339844 321.742188 237.628906 322.414062 239.28125 322.980469 C 239.796875 323.652344 240.3125 324.375 240.828125 325.046875 C 243.203125 327.523438 245.371094 330.105469 245.476562 333.820312 C 244.90625 335.472656 245.890625 335.371094 246.972656 335.164062 C 249.503906 334.648438 252.082031 334.648438 254.304688 335.992188 C 256.625 337.4375 258.070312 334.75 260.136719 335.0625 C 260.445312 335.113281 260.34375 334.183594 260.035156 333.769531 C 259.15625 332.429688 258.226562 331.085938 257.347656 329.742188 C 258.070312 329.535156 258.898438 329.433594 259.519531 329.070312 C 260.445312 328.554688 261.839844 327.730469 261.324219 326.644531 C 259.828125 323.652344 258.898438 320.296875 256.316406 317.867188 C 255.179688 317.351562 254.921875 316.164062 254.511719 315.183594 C 253.839844 313.636719 253.21875 312.085938 251.671875 311.105469 C 252.082031 309.351562 252.445312 307.234375 251.050781 306.097656 C 248.261719 303.722656 248.574219 300.730469 248.574219 297.734375 C 249.710938 296.082031 248.882812 294.6875 247.746094 293.65625 C 245.890625 291.902344 244.648438 289.527344 242.222656 288.390625 C 241.5 288.027344 241.5 287.511719 241.863281 286.894531 C 244.238281 286.6875 246.664062 284.828125 246.148438 283.125 C 245.269531 280.179688 247.078125 280.644531 248.625 280.699219 C 249.96875 280.75 251.15625 280.492188 252.34375 279.871094 C 254.457031 278.734375 255.027344 277.03125 253.425781 275.171875 C 252.289062 273.832031 251.878906 272.953125 252.910156 271.300781 C 253.890625 269.699219 252.703125 267.6875 250.894531 267.378906 C 249.140625 267.066406 247.128906 267.429688 247.179688 269.441406 C 247.28125 272.539062 245.371094 272.59375 243.359375 272.953125 C 243.152344 272.695312 242.996094 272.386719 242.738281 272.128906 C 239.746094 268.824219 239.695312 267.480469 242.273438 263.867188 C 242.738281 263.195312 242.996094 262.371094 243.359375 261.59375 C 245.941406 261.957031 246.148438 259.480469 247.386719 258.238281 C 249.710938 255.917969 249.65625 255.863281 247.28125 253.851562 C 246.558594 253.230469 246.042969 252.457031 245.425781 251.785156 C 244.753906 250.238281 245.167969 249.617188 246.871094 249.101562 C 250.328125 248.121094 252.1875 249.566406 254.046875 252.25 C 256.316406 255.554688 258.847656 258.757812 262.976562 260.046875 C 265.867188 263.609375 268.808594 267.171875 271.648438 270.734375 C 273.144531 272.59375 274.4375 274.863281 277.484375 273.316406 C 277.84375 273.109375 278.464844 273.46875 278.980469 273.519531 C 279.597656 273.625 280.320312 274.347656 280.839844 273.519531 C 281.304688 272.746094 281.304688 271.765625 280.839844 271.042969 C 278.773438 267.84375 277.949219 263.96875 275.417969 260.976562 C 273.867188 259.167969 273.972656 257.207031 275.417969 255.347656 C 275.574219 255.347656 275.726562 255.347656 275.933594 255.347656 C 277.84375 254.730469 278.207031 253.488281 277.484375 251.734375 C 277.636719 250.804688 277.171875 249.722656 277.894531 248.84375 C 279.496094 249.515625 279.1875 251.527344 280.582031 252.25 C 281.148438 252.765625 281.820312 253.179688 282.285156 253.75 C 284.605469 256.84375 286.980469 259.941406 289.871094 262.523438 C 290.851562 263.402344 292.402344 264.28125 292.660156 265.414062 C 293.125 267.480469 294.570312 268.046875 296.066406 268.773438 C 296.582031 269.441406 297.101562 270.164062 297.617188 270.835938 C 298.441406 272.074219 299.472656 273.109375 300.714844 273.933594 C 301.4375 275.84375 302.003906 277.804688 302.261719 279.820312 C 302.417969 281.058594 302.933594 281.214844 303.964844 280.851562 C 306.648438 279.921875 309.179688 280.4375 311.503906 281.988281 C 312.175781 282.453125 312.84375 282.554688 313.359375 282.039062 C 314.394531 280.902344 316.664062 281.523438 317.027344 280.4375 C 317.441406 279.199219 315.632812 278.117188 315.011719 276.773438 C 314.445312 275.429688 314.082031 275.070312 315.992188 275.171875 C 317.234375 275.226562 318.9375 273.675781 318.214844 272.644531 C 317.027344 270.941406 317.128906 268.71875 315.683594 267.171875 C 314.808594 265.984375 313.980469 264.746094 313.101562 263.558594 C 311.398438 260.5625 308.664062 258.03125 308.816406 254.160156 C 308.871094 253.230469 308.507812 252.042969 307.632812 251.425781 C 306.445312 250.597656 306.289062 249.308594 305.667969 248.222656 C 304.378906 245.953125 305.773438 243.679688 305.359375 241.460938 C 305.050781 239.652344 305.617188 236.96875 302.3125 237.277344 C 301.4375 236.503906 301.074219 235.367188 299.992188 234.644531 C 297.617188 233.097656 297.875 229.792969 300.402344 228.398438 C 301.023438 228.039062 301.488281 227.625 301.796875 227.003906 C 302.882812 226.796875 303.914062 226.386719 305.050781 226.4375 C 307.371094 226.59375 309.902344 226.230469 310.882812 224.164062 C 311.96875 221.894531 309.800781 220.292969 308.300781 218.796875 C 307.890625 218.382812 306.855469 218.28125 307.578125 217.300781 C 308.042969 216.628906 308.300781 215.75 307.425781 215.335938 C 306.496094 214.871094 305.722656 215.335938 305.050781 216.214844 C 303.863281 217.765625 302.261719 218.691406 300.25 218.796875 C 298.492188 216.886719 296.996094 214.871094 297.152344 212.085938 C 297.875 210.742188 299.886719 210.019531 299.628906 208.417969 C 299.011719 204.804688 301.28125 202.222656 302.261719 199.179688 C 304.015625 198.457031 302.882812 200.625 303.8125 200.726562 C 305.050781 202.378906 306.910156 202.535156 308.816406 202.792969 C 311.398438 203.152344 313.980469 203.257812 316.40625 204.390625 C 321.207031 206.5625 328.074219 204.960938 331.171875 201.242188 C 333.339844 201.035156 335.300781 200.210938 337.210938 199.230469 C 339.121094 198.25 340.207031 197.007812 340 194.582031 C 339.792969 192.3125 338.296875 191.539062 336.644531 190.8125 C 335.558594 190.351562 334.371094 190.144531 333.238281 189.832031 C 332.050781 188.800781 330.65625 187.976562 329.882812 186.324219 C 331.328125 186.117188 332.667969 185.652344 333.804688 185.859375 C 336.386719 186.375 338.605469 184.824219 341.082031 184.980469 C 341.652344 185.03125 342.375 184.308594 342.269531 183.535156 C 342.21875 182.96875 341.445312 182.96875 340.722656 182.914062 Z M 127.050781 90.761719 C 127.050781 90.65625 127.101562 90.605469 127.101562 90.503906 C 127.101562 90.605469 127.101562 90.65625 127.152344 90.761719 C 127.101562 90.761719 127.101562 90.761719 127.050781 90.761719 Z M 128.339844 84.824219 C 128.289062 84.925781 128.238281 85.03125 128.1875 85.132812 C 128.132812 85.03125 128.03125 84.925781 127.980469 84.824219 C 128.082031 84.824219 128.238281 84.824219 128.339844 84.824219 Z M 89.625 120.445312 Z M 146.875 116.214844 C 146.976562 116.675781 147.132812 117.039062 147.441406 117.347656 C 147.027344 117.089844 146.769531 116.832031 146.875 116.214844 Z M 86.886719 157.152344 C 86.992188 157.203125 87.09375 157.308594 87.195312 157.464844 C 87.195312 157.515625 87.195312 157.566406 87.195312 157.617188 C 87.042969 157.464844 86.992188 157.308594 86.886719 157.152344 Z M 74.652344 167.425781 Z M 73.621094 135.417969 Z M 61.589844 163.761719 C 61.332031 163.605469 61.023438 163.453125 60.765625 163.347656 C 61.125 163.398438 61.4375 163.503906 61.589844 163.761719 Z M 294.15625 188.078125 C 294.3125 188.128906 294.414062 188.179688 294.570312 188.234375 C 294.519531 188.285156 294.46875 188.386719 294.414062 188.492188 C 294.3125 188.335938 294.207031 188.234375 294.15625 188.078125 Z M 305.308594 182.914062 C 305.050781 182.449219 304.792969 182.039062 304.429688 181.675781 C 304.792969 181.832031 305.152344 182.347656 305.308594 182.914062 Z M 349.292969 146.777344 Z M 220.230469 302.175781 C 220.230469 302.175781 220.285156 302.175781 220.230469 302.175781 C 220.285156 302.175781 220.285156 302.175781 220.230469 302.175781 C 220.285156 302.175781 220.230469 302.175781 220.230469 302.175781 Z M 138.148438 265.105469 C 138.355469 265.570312 138.460938 266.035156 138.40625 266.035156 C 138.304688 265.777344 138.253906 265.46875 138.148438 265.105469 Z M 163.960938 250.03125 C 164.011719 249.980469 164.011719 249.925781 164.066406 249.875 C 164.066406 249.925781 164.066406 249.980469 164.066406 250.03125 C 164.011719 250.03125 164.011719 250.03125 163.960938 250.03125 Z M 129.890625 260.667969 C 129.941406 260.5625 129.992188 260.40625 130.042969 260.304688 C 130.097656 260.40625 130.199219 260.460938 130.25 260.5625 C 130.148438 260.613281 130.042969 260.667969 129.890625 260.667969 Z M 178.933594 242.285156 Z M 115.695312 232.527344 C 115.695312 232.582031 115.695312 232.582031 115.695312 232.632812 C 115.695312 232.582031 115.695312 232.582031 115.695312 232.527344 Z M 135.929688 260.253906 C 135.929688 260.355469 135.929688 260.40625 135.929688 260.511719 C 135.878906 260.511719 135.773438 260.511719 135.722656 260.5625 C 135.773438 260.460938 135.878906 260.355469 135.929688 260.253906 Z M 147.546875 255.917969 C 147.546875 255.863281 147.492188 255.761719 147.441406 255.710938 C 147.492188 255.710938 147.597656 255.710938 147.648438 255.710938 C 147.597656 255.8125 147.597656 255.863281 147.546875 255.917969 Z M 141.761719 279.976562 Z M 180.480469 273.78125 L 180.53125 273.726562 Z M 182.546875 302.691406 C 182.597656 302.691406 182.597656 302.691406 182.648438 302.640625 C 182.597656 302.691406 182.597656 302.742188 182.546875 302.691406 C 182.546875 302.742188 182.546875 302.691406 182.546875 302.691406 Z M 245.476562 323.910156 C 245.476562 323.859375 245.476562 323.859375 245.476562 323.910156 C 245.476562 323.859375 245.476562 323.859375 245.476562 323.910156 C 245.527344 323.859375 245.527344 323.859375 245.476562 323.910156 Z M 240.054688 80.796875 C 240.003906 80.589844 239.953125 80.382812 239.902344 80.175781 C 239.847656 79.867188 239.847656 79.507812 239.847656 79.195312 C 240.054688 79.765625 240.105469 80.28125 240.054688 80.796875 Z M 221.675781 106.457031 C 221.730469 106.816406 221.78125 107.179688 221.78125 107.539062 C 221.730469 107.179688 221.730469 106.816406 221.675781 106.457031 Z M 110.273438 205.113281 Z M 126.792969 296.496094 C 126.84375 296.445312 126.894531 296.390625 126.949219 296.339844 C 126.894531 296.445312 126.84375 296.445312 126.792969 296.496094 Z M 139.128906 286.945312 C 139.335938 286.996094 139.492188 287.046875 139.699219 287.203125 C 139.492188 287.097656 139.335938 287.046875 139.128906 286.945312 Z M 149.921875 270.421875 C 149.765625 270.371094 149.609375 270.320312 149.507812 270.164062 C 149.660156 270.269531 149.816406 270.320312 149.921875 270.421875 Z M 187.140625 263.453125 L 187.191406 263.402344 L 187.191406 263.453125 C 187.191406 263.453125 187.191406 263.453125 187.140625 263.453125 Z M 178.882812 300.058594 C 178.882812 300.109375 178.882812 300.109375 178.933594 300.160156 L 178.882812 300.160156 C 178.882812 300.058594 178.882812 300.058594 178.882812 300.058594 Z M 219.714844 318.746094 C 219.714844 318.695312 219.714844 318.695312 219.714844 318.746094 C 219.714844 318.695312 219.714844 318.695312 219.714844 318.746094 Z M 220.75 306.304688 Z M 274.28125 257.464844 C 274.4375 257.050781 274.644531 256.691406 274.953125 256.277344 C 274.746094 256.585938 274.488281 257 274.28125 257.464844 Z M 277.535156 252.097656 Z M 277.535156 252.097656 " fill-opacity="1" fill-rule="nonzero"/><g clip-path="url(#clip-1)"><path fill="rgb(100%, 74.899292%, 0.779724%)" d="M 359.253906 183.433594 C 357.550781 183.484375 355.847656 183.949219 354.195312 183.691406 C 352.132812 183.378906 350.890625 184.464844 349.757812 185.703125 C 348.929688 186.582031 348.828125 187.820312 350.582031 188.078125 C 351.925781 188.285156 353.214844 188.851562 354.660156 188.542969 C 356.519531 188.851562 358.171875 188.078125 359.925781 187.5625 C 361.421875 187.148438 361.320312 185.859375 361.371094 184.824219 C 361.320312 183.691406 360.289062 183.378906 359.253906 183.433594 Z M 359.253906 183.433594 " fill-opacity="1" fill-rule="nonzero"/></g><path fill="rgb(100%, 74.899292%, 0.779724%)" d="M 291.78125 285.652344 C 290.027344 285.652344 288.996094 286.324219 288.941406 287.5625 C 288.890625 289.527344 290.648438 291.230469 292.761719 291.332031 C 294.15625 291.382812 295.085938 290.972656 295.085938 289.371094 C 295.136719 287.152344 293.847656 285.652344 291.78125 285.652344 Z M 291.78125 285.652344 " fill-opacity="1" fill-rule="nonzero"/><path fill="rgb(100%, 74.899292%, 0.779724%)" d="M 234.839844 339.863281 C 233.394531 339.863281 232.207031 340.273438 232.261719 341.980469 C 232.3125 344.042969 234.117188 345.542969 236.234375 345.59375 C 237.785156 345.644531 238.453125 344.921875 238.351562 343.527344 C 238.300781 341.101562 236.957031 339.8125 234.839844 339.863281 Z M 234.839844 339.863281 " fill-opacity="1" fill-rule="nonzero"/><path fill="rgb(100%, 74.899292%, 0.779724%)" d="M 337.519531 225.351562 C 337.882812 224.941406 338.347656 224.371094 338.089844 223.753906 C 337.78125 223.082031 337.210938 222.566406 336.4375 222.71875 C 334.476562 223.132812 332.359375 223.183594 330.757812 224.734375 C 330.191406 225.300781 329.519531 225.816406 329.984375 226.695312 C 330.34375 227.417969 331.121094 227.625 331.894531 227.726562 C 333.855469 227.058594 336.023438 227.003906 337.519531 225.351562 Z M 337.519531 225.351562 " fill-opacity="1" fill-rule="nonzero"/><path fill="rgb(100%, 74.899292%, 0.779724%)" d="M 279.703125 276.929688 C 277.742188 277.339844 275.625 277.339844 274.023438 278.890625 C 273.457031 279.457031 272.785156 279.976562 273.199219 280.800781 C 273.558594 281.523438 274.332031 281.78125 275.109375 281.886719 C 277.070312 281.265625 279.238281 281.214844 280.734375 279.5625 C 281.199219 279.097656 281.664062 278.476562 281.25 277.753906 C 280.890625 277.238281 280.320312 276.773438 279.703125 276.929688 Z M 279.703125 276.929688 " fill-opacity="1" fill-rule="nonzero"/><path fill="rgb(100%, 74.899292%, 0.779724%)" d="M 353.007812 178.835938 C 352.75 177.753906 351.667969 177.597656 350.683594 177.753906 C 349.035156 178.011719 347.949219 179.351562 346.453125 180.023438 C 348.105469 182.191406 349.703125 180.851562 351.355469 180.335938 C 352.183594 180.074219 353.214844 179.871094 353.007812 178.835938 Z M 353.007812 178.835938 " fill-opacity="1" fill-rule="nonzero"/><path fill="rgb(100%, 74.899292%, 0.779724%)" d="M 345.316406 222.667969 C 344.335938 222.617188 343.355469 222.667969 343.199219 223.960938 C 343.046875 224.941406 343.507812 225.664062 344.542969 225.714844 C 345.730469 225.816406 346.347656 224.941406 347.019531 223.960938 C 346.660156 223.289062 346.140625 222.773438 345.316406 222.667969 Z M 345.316406 222.667969 " fill-opacity="1" fill-rule="nonzero"/><path fill="rgb(100%, 74.899292%, 0.779724%)" d="M 290.027344 278.167969 C 290.078125 277.289062 289.097656 276.878906 288.117188 276.878906 C 287.136719 276.878906 286.414062 277.1875 286.308594 278.269531 C 286.257812 279.304688 286.722656 279.871094 288.066406 279.976562 C 288.941406 279.769531 289.976562 279.199219 290.027344 278.167969 Z M 290.027344 278.167969 " fill-opacity="1" fill-rule="nonzero"/><path fill="rgb(100%, 74.899292%, 0.779724%)" d="M 328.640625 245.953125 C 328.332031 245.953125 327.917969 245.953125 327.917969 246.417969 C 327.917969 246.882812 328.332031 246.882812 328.640625 246.882812 C 328.953125 246.882812 329.363281 246.882812 329.363281 246.417969 C 329.363281 246.003906 329.003906 245.953125 328.640625 245.953125 Z M 328.640625 245.953125 " fill-opacity="1" fill-rule="nonzero"/><path fill="rgb(0%, 0%, 0%)" d="M 152.992188 161.582031 C 153.144531 161.582031 153.300781 161.566406 153.460938 161.535156 L 160.785156 160.089844 L 160.785156 168.496094 L 165.582031 168.496094 L 165.582031 159.140625 L 169.960938 158.273438 C 170.871094 161.234375 171.984375 162.550781 173.519531 162.550781 C 173.707031 162.550781 173.902344 162.53125 174.101562 162.492188 C 174.726562 162.371094 175.429688 161.894531 175.785156 161.363281 C 176.015625 161.019531 176.601562 160.117188 176.339844 157.015625 L 182.058594 155.882812 L 187.128906 168.496094 L 192.300781 168.496094 L 186.847656 154.9375 L 192.621094 153.796875 C 193.917969 153.539062 194.765625 152.277344 194.507812 150.976562 C 194.253906 149.679688 192.992188 148.828125 191.691406 149.089844 L 185.027344 150.40625 L 175.613281 126.996094 C 176.359375 125.183594 176.621094 123.183594 176.292969 121.167969 C 175.363281 115.492188 170.109375 111.601562 164.4375 112.214844 L 162.679688 105.195312 C 162.355469 103.90625 161.054688 103.125 159.769531 103.449219 C 158.488281 103.773438 157.707031 105.074219 158.027344 106.359375 L 159.875 113.730469 C 158.679688 114.46875 157.632812 115.441406 156.789062 116.617188 C 155.105469 118.953125 154.433594 121.804688 154.898438 124.644531 C 155.46875 128.121094 157.699219 131.023438 160.785156 132.550781 L 160.785156 155.195312 L 152.53125 156.828125 C 151.230469 157.085938 150.386719 158.347656 150.640625 159.648438 C 150.867188 160.792969 151.871094 161.582031 152.992188 161.582031 Z M 180.238281 151.351562 L 175.558594 152.277344 C 174.445312 147.339844 173.046875 145.449219 170.855469 145.867188 C 168.449219 146.335938 168.527344 149.222656 168.554688 150.171875 C 168.578125 151.144531 168.703125 152.332031 168.90625 153.59375 L 165.582031 154.25 L 165.582031 133.707031 C 165.582031 133.707031 165.585938 133.707031 165.585938 133.707031 C 166.171875 133.707031 166.753906 133.660156 167.335938 133.566406 C 169.144531 133.269531 170.816406 132.511719 172.21875 131.414062 Z M 159.632812 123.867188 C 159.375 122.296875 159.746094 120.71875 160.679688 119.421875 C 161.621094 118.109375 163.023438 117.246094 164.625 116.988281 C 164.953125 116.933594 165.277344 116.910156 165.601562 116.910156 C 168.507812 116.910156 171.078125 119.003906 171.5625 121.945312 C 171.898438 124.003906 171.148438 126.050781 169.539062 127.4375 C 168.710938 128.164062 167.683594 128.644531 166.566406 128.828125 C 165.75 128.957031 164.925781 128.925781 164.125 128.726562 C 161.78125 128.140625 160.019531 126.234375 159.632812 123.867188 Z M 159.632812 123.867188 " fill-opacity="1" fill-rule="nonzero"/><path fill="rgb(0%, 0%, 0%)" d="M 239.425781 358.066406 C 239.425781 358.382812 239.363281 358.691406 239.242188 358.984375 C 239.121094 359.277344 238.949219 359.539062 238.722656 359.761719 C 238.5 359.988281 238.238281 360.160156 237.945312 360.28125 C 237.652344 360.40625 237.34375 360.464844 237.027344 360.464844 C 236.710938 360.464844 236.402344 360.40625 236.109375 360.28125 C 235.816406 360.160156 235.558594 359.988281 235.332031 359.761719 C 235.105469 359.539062 234.933594 359.277344 234.8125 358.984375 C 234.691406 358.691406 234.628906 358.382812 234.628906 358.066406 C 234.628906 357.746094 234.691406 357.441406 234.8125 357.148438 C 234.933594 356.855469 235.105469 356.59375 235.332031 356.371094 C 235.558594 356.144531 235.816406 355.972656 236.109375 355.847656 C 236.402344 355.726562 236.710938 355.667969 237.027344 355.667969 C 237.34375 355.667969 237.652344 355.726562 237.945312 355.847656 C 238.238281 355.972656 238.5 356.144531 238.722656 356.371094 C 238.949219 356.59375 239.121094 356.855469 239.242188 357.148438 C 239.363281 357.441406 239.425781 357.746094 239.425781 358.066406 Z M 239.425781 358.066406 " fill-opacity="1" fill-rule="nonzero"/><path fill="rgb(0%, 0%, 0%)" d="M 249.019531 358.066406 C 249.019531 358.382812 248.957031 358.691406 248.835938 358.984375 C 248.714844 359.277344 248.539062 359.539062 248.316406 359.761719 C 248.089844 359.988281 247.832031 360.160156 247.539062 360.28125 C 247.246094 360.40625 246.9375 360.464844 246.621094 360.464844 C 246.300781 360.464844 245.996094 360.40625 245.703125 360.28125 C 245.410156 360.160156 245.148438 359.988281 244.925781 359.761719 C 244.699219 359.539062 244.527344 359.277344 244.40625 358.984375 C 244.285156 358.691406 244.222656 358.382812 244.222656 358.066406 C 244.222656 357.746094 244.285156 357.441406 244.40625 357.148438 C 244.527344 356.855469 244.699219 356.59375 244.925781 356.371094 C 245.148438 356.144531 245.410156 355.972656 245.703125 355.847656 C 245.996094 355.726562 246.300781 355.667969 246.621094 355.667969 C 246.9375 355.667969 247.246094 355.726562 247.539062 355.847656 C 247.832031 355.972656 248.089844 356.144531 248.316406 356.371094 C 248.539062 356.59375 248.714844 356.855469 248.835938 357.148438 C 248.957031 357.441406 249.019531 357.746094 249.019531 358.066406 Z M 249.019531 358.066406 " fill-opacity="1" fill-rule="nonzero"/><path fill="rgb(0%, 0%, 0%)" d="M 179.492188 192.488281 L 179.492188 216.710938 C 179.492188 220.648438 182.71875 223.851562 186.6875 223.851562 C 187.949219 223.851562 189.191406 223.523438 190.296875 222.886719 C 192.507812 221.589844 193.878906 219.222656 193.878906 216.710938 C 193.878906 216.605469 193.871094 216.5 193.859375 216.398438 C 193.359375 212.636719 193.273438 208.539062 193.640625 207.675781 C 193.644531 207.671875 194.109375 207.214844 196.277344 207.214844 C 197.117188 207.214844 197.804688 207.289062 198.34375 207.4375 C 198.726562 207.542969 198.875 207.640625 198.890625 207.640625 C 199.082031 208.070312 199.234375 208.585938 199.347656 209.25 C 200.855469 216.453125 198.71875 232.84375 198.695312 233.011719 C 198.683594 233.113281 198.675781 233.21875 198.675781 233.324219 C 198.675781 235.886719 200.015625 238.203125 202.277344 239.535156 C 203.363281 240.15625 204.605469 240.484375 205.871094 240.484375 C 209.835938 240.484375 213.0625 237.273438 213.0625 233.324219 L 213.0625 192.488281 L 208.265625 192.488281 L 208.265625 233.324219 C 208.265625 234.625 207.191406 235.6875 205.871094 235.6875 C 205.445312 235.6875 205.019531 235.574219 204.683594 235.382812 C 203.964844 234.960938 203.519531 234.246094 203.476562 233.453125 C 203.730469 231.46875 205.640625 215.917969 204.058594 208.347656 C 203.886719 207.363281 203.617188 206.460938 203.269531 205.683594 C 202.648438 204.261719 201.410156 203.292969 199.609375 202.808594 C 198.660156 202.546875 197.570312 202.417969 196.277344 202.417969 C 192.613281 202.417969 190.261719 203.507812 189.292969 205.664062 C 188.113281 208.292969 188.796875 214.65625 189.082031 216.839844 C 189.035156 217.621094 188.59375 218.324219 187.894531 218.738281 C 187.539062 218.9375 187.109375 219.050781 186.6875 219.050781 C 185.363281 219.050781 184.289062 218 184.289062 216.710938 L 184.289062 192.488281 Z M 179.492188 192.488281 " fill-opacity="1" fill-rule="nonzero"/><path fill="rgb(0%, 0%, 0%)" d="M 217.859375 192.488281 L 217.859375 247.722656 C 217.859375 251.671875 221.085938 254.882812 225.054688 254.882812 C 227.640625 254.882812 229.964844 253.550781 231.261719 251.332031 C 231.894531 250.265625 232.246094 248.984375 232.246094 247.722656 C 232.246094 247.617188 232.238281 247.511719 232.226562 247.410156 C 232.210938 247.28125 230.515625 234.289062 230.421875 222.722656 C 230.320312 215.582031 230.894531 210.242188 232.011719 207.722656 C 232.015625 207.71875 232.476562 207.261719 234.644531 207.261719 C 236.769531 207.261719 237.253906 207.703125 237.261719 207.703125 C 237.542969 208.324219 238.386719 211.191406 237.269531 221.941406 C 237.269531 221.96875 237.265625 221.996094 237.265625 222.023438 C 237.15625 222.964844 237.074219 223.53125 237.070312 223.554688 C 237.050781 223.671875 237.042969 223.792969 237.042969 223.910156 C 237.042969 226.46875 238.378906 228.78125 240.640625 230.117188 C 241.726562 230.742188 242.96875 231.074219 244.234375 231.074219 C 248.203125 231.074219 251.429688 227.859375 251.429688 223.910156 L 251.429688 192.488281 L 246.632812 192.488281 L 246.632812 223.910156 C 246.632812 225.214844 245.558594 226.273438 244.234375 226.273438 C 243.816406 226.273438 243.386719 226.160156 243.058594 225.96875 C 242.324219 225.539062 241.886719 224.847656 241.84375 224.054688 C 241.882812 223.773438 241.957031 223.226562 242.039062 222.480469 C 242.042969 222.445312 242.046875 222.40625 242.046875 222.367188 C 243.375 209.535156 242.054688 206.652344 241.628906 205.722656 C 240.664062 203.558594 238.3125 202.464844 234.644531 202.464844 C 230.976562 202.464844 228.625 203.558594 227.660156 205.722656 C 226.195312 208.996094 225.511719 214.738281 225.628906 222.777344 C 225.71875 233.996094 227.226562 246.136719 227.445312 247.847656 C 227.425781 248.207031 227.3125 248.585938 227.132812 248.894531 C 226.695312 249.640625 225.917969 250.085938 225.054688 250.085938 C 223.730469 250.085938 222.65625 249.027344 222.65625 247.722656 L 222.65625 192.488281 Z M 217.859375 192.488281 " fill-opacity="1" fill-rule="nonzero"/><path fill="rgb(0%, 0%, 0%)" d="M 160.28125 192.488281 L 160.28125 210.753906 C 160.28125 215.238281 163.519531 218.890625 167.503906 218.890625 C 171.484375 218.890625 174.722656 215.238281 174.722656 210.753906 L 174.722656 192.488281 L 169.929688 192.488281 L 169.929688 210.753906 C 169.929688 212.53125 168.796875 214.089844 167.503906 214.089844 C 166.210938 214.089844 165.078125 212.53125 165.078125 210.753906 L 165.078125 192.488281 Z M 160.28125 192.488281 " fill-opacity="1" fill-rule="nonzero"/><path fill="rgb(0%, 0%, 0%)" d="M 256.226562 192.488281 L 256.226562 212.792969 C 256.226562 216.816406 259.453125 220.089844 263.417969 220.089844 C 267.386719 220.089844 270.613281 216.816406 270.613281 212.792969 L 270.613281 192.488281 L 265.816406 192.488281 L 265.816406 212.792969 C 265.816406 214.148438 264.71875 215.289062 263.417969 215.289062 C 262.121094 215.289062 261.023438 214.148438 261.023438 212.792969 L 261.023438 192.488281 Z M 256.226562 192.488281 " fill-opacity="1" fill-rule="nonzero"/><path fill="rgb(0%, 0%, 0%)" d="M 132.066406 176.464844 C 132.15625 174.820312 132.480469 173.246094 133.011719 171.761719 C 111.894531 167.132812 93.964844 152.222656 85.71875 131.164062 C 77.160156 109.230469 80.964844 84.898438 94.894531 67.074219 L 135.492188 167.210938 C 136.542969 165.835938 137.796875 164.625 139.214844 163.628906 L 98.40625 62.96875 C 99.425781 61.875 100.472656 60.800781 101.574219 59.765625 L 142.90625 161.691406 C 144.402344 161.125 145.996094 160.769531 147.660156 160.660156 L 104.746094 54.816406 C 104.457031 54.101562 103.84375 53.574219 103.097656 53.386719 C 102.347656 53.203125 101.5625 53.386719 100.976562 53.882812 C 98.441406 56.019531 96.121094 58.335938 93.960938 60.765625 C 93.9375 60.789062 93.917969 60.8125 93.894531 60.835938 C 76.707031 80.195312 71.527344 107.992188 81.253906 132.914062 C 90.105469 155.527344 109.375 171.519531 132.066406 176.464844 Z M 132.066406 176.464844 " fill-opacity="1" fill-rule="nonzero"/><path fill="rgb(0%, 0%, 0%)" d="M 136.816406 177.398438 C 136.816406 184.011719 142.195312 189.394531 148.804688 189.394531 C 155.414062 189.394531 160.792969 184.011719 160.792969 177.398438 C 160.792969 170.78125 155.414062 165.398438 148.804688 165.398438 C 142.195312 165.398438 136.816406 170.78125 136.816406 177.398438 Z M 148.804688 170.199219 C 152.773438 170.199219 156 173.429688 156 177.398438 C 156 181.367188 152.773438 184.597656 148.804688 184.597656 C 144.839844 184.597656 141.609375 181.367188 141.609375 177.398438 C 141.609375 173.429688 144.839844 170.199219 148.804688 170.199219 Z M 148.804688 170.199219 " fill-opacity="1" fill-rule="nonzero"/><path fill="rgb(0%, 0%, 0%)" d="M 203.457031 120.507812 L 217.84375 120.507812 L 217.84375 168.496094 L 222.640625 168.496094 L 222.640625 94.109375 C 222.640625 94.082031 222.625 94.058594 222.625 94.027344 C 222.613281 93.773438 222.582031 93.519531 222.488281 93.273438 L 213.5625 69.277344 C 213.214844 68.339844 212.320312 67.714844 211.316406 67.714844 L 209.984375 67.714844 C 208.984375 67.714844 208.085938 68.339844 207.738281 69.277344 L 198.8125 93.273438 C 198.722656 93.519531 198.6875 93.773438 198.679688 94.027344 C 198.675781 94.058594 198.660156 94.082031 198.660156 94.109375 L 198.660156 168.496094 L 203.457031 168.496094 Z M 210.652344 75.203125 L 216.792969 91.710938 L 204.511719 91.710938 Z M 203.457031 96.511719 L 217.84375 96.511719 L 217.84375 106.109375 L 203.457031 106.109375 Z M 203.457031 110.910156 L 217.84375 110.910156 L 217.84375 115.707031 L 203.457031 115.707031 Z M 203.457031 110.910156 " fill-opacity="1" fill-rule="nonzero"/><path fill="rgb(0%, 0%, 0%)" d="M 238.277344 164.457031 L 248.570312 168.878906 C 248.878906 169.007812 249.199219 169.074219 249.515625 169.074219 C 250.445312 169.074219 251.328125 168.527344 251.71875 167.617188 C 252.242188 166.398438 251.679688 164.988281 250.460938 164.464844 L 240.175781 160.050781 L 242.175781 155.398438 L 252.496094 159.828125 C 252.800781 159.960938 253.121094 160.023438 253.4375 160.023438 C 254.367188 160.023438 255.253906 159.480469 255.644531 158.570312 C 256.164062 157.351562 255.601562 155.941406 254.382812 155.417969 L 244.074219 150.992188 L 246.078125 146.34375 L 256.417969 150.78125 C 256.726562 150.914062 257.046875 150.976562 257.363281 150.976562 C 258.292969 150.976562 259.175781 150.433594 259.566406 149.523438 C 260.089844 148.304688 259.523438 146.894531 258.308594 146.371094 L 247.972656 141.933594 L 249.976562 137.285156 L 260.339844 141.734375 C 260.648438 141.867188 260.96875 141.929688 261.285156 141.929688 C 262.214844 141.929688 263.101562 141.382812 263.488281 140.472656 C 264.011719 139.257812 263.449219 137.847656 262.230469 137.324219 L 251.871094 132.878906 L 254.136719 127.621094 L 264.222656 132.144531 C 264.542969 132.289062 264.875 132.355469 265.203125 132.355469 C 266.117188 132.355469 266.992188 131.828125 267.390625 130.9375 C 267.933594 129.726562 267.394531 128.308594 266.183594 127.765625 L 256.035156 123.210938 L 259.671875 114.761719 C 259.925781 114.171875 260.394531 113.714844 260.988281 113.476562 C 261.277344 113.363281 261.574219 113.308594 261.871094 113.308594 C 262.195312 113.308594 262.515625 113.375 262.820312 113.507812 L 281.136719 121.425781 C 282.355469 121.953125 282.914062 123.371094 282.390625 124.589844 L 263.488281 168.496094 L 268.710938 168.496094 L 286.796875 126.488281 C 288.367188 122.84375 286.679688 118.59375 283.039062 117.019531 L 264.722656 109.101562 C 262.960938 108.339844 261.007812 108.308594 259.21875 109.015625 C 257.433594 109.726562 256.027344 111.09375 255.265625 112.863281 L 231.316406 168.496094 L 236.539062 168.496094 Z M 238.277344 164.457031 " fill-opacity="1" fill-rule="nonzero"/><path fill="rgb(0%, 0%, 0%)" d="M 257.503906 248.109375 C 262.378906 244.429688 267.414062 240.621094 271.300781 235.574219 C 280.511719 223.589844 285.378906 209.28125 285.378906 194.195312 C 285.378906 187.648438 284.445312 181.191406 282.601562 175.011719 C 282.300781 173.996094 281.367188 173.296875 280.304688 173.296875 L 165.0625 173.296875 C 165.394531 174.613281 165.589844 175.980469 165.589844 177.398438 C 165.589844 177.632812 165.566406 177.863281 165.554688 178.097656 L 278.492188 178.097656 C 278.914062 179.679688 279.25 181.28125 279.542969 182.894531 L 164.648438 182.894531 C 164.039062 184.644531 163.152344 186.261719 162.039062 187.695312 L 280.21875 187.695312 C 280.441406 189.847656 280.582031 192.011719 280.582031 194.195312 C 280.582031 208.214844 276.058594 221.511719 267.5 232.648438 C 264.011719 237.179688 259.445312 240.628906 254.613281 244.28125 C 252.199219 246.105469 249.699219 247.996094 247.328125 250.042969 C 237.765625 258.3125 232.917969 272.355469 232.917969 291.777344 C 232.917969 291.828125 232.921875 295.402344 232.964844 298.078125 L 197.929688 298.078125 C 197.972656 295.402344 197.976562 291.828125 197.976562 291.777344 C 197.976562 272.355469 193.128906 258.3125 183.566406 250.042969 C 181.195312 247.996094 178.695312 246.105469 176.28125 244.28125 C 171.445312 240.628906 166.882812 237.179688 163.394531 232.648438 C 154.835938 221.511719 150.3125 208.214844 150.3125 194.195312 C 150.3125 194.167969 150.3125 194.144531 150.3125 194.117188 C 149.816406 194.164062 149.3125 194.195312 148.804688 194.195312 C 147.683594 194.195312 146.585938 194.078125 145.527344 193.867188 C 145.527344 193.976562 145.515625 194.085938 145.515625 194.195312 C 145.515625 209.28125 150.382812 223.589844 159.59375 235.578125 C 163.476562 240.621094 168.515625 244.429688 173.386719 248.109375 C 175.746094 249.890625 178.179688 251.730469 180.429688 253.675781 C 188.890625 260.992188 193.183594 273.808594 193.183594 291.777344 C 193.183594 293.195312 193.164062 296.359375 193.125 298.460938 C 190.097656 299.480469 187.871094 302.617188 187.871094 306.359375 L 187.871094 313.789062 C 187.871094 318.355469 191.164062 322.074219 195.210938 322.074219 L 236.097656 322.074219 C 237.101562 322.074219 238.226562 323.5625 238.226562 325.554688 L 238.226562 332.988281 C 238.226562 334.980469 237.101562 336.46875 236.097656 336.46875 L 195.121094 336.46875 C 191.125 336.46875 187.871094 340.183594 187.871094 344.753906 L 187.871094 352.183594 C 187.871094 356.75 191.125 360.464844 195.121094 360.464844 L 227.113281 360.464844 C 228.4375 360.464844 229.511719 359.390625 229.511719 358.066406 C 229.511719 356.742188 228.4375 355.667969 227.113281 355.667969 L 195.121094 355.667969 C 193.789062 355.667969 192.667969 354.070312 192.667969 352.183594 L 192.667969 344.753906 C 192.667969 342.863281 193.789062 341.269531 195.121094 341.269531 L 236.097656 341.269531 C 239.917969 341.269531 243.023438 337.554688 243.023438 332.988281 L 243.023438 325.554688 C 243.023438 320.988281 239.917969 317.273438 236.097656 317.273438 L 195.210938 317.273438 C 193.832031 317.273438 192.667969 315.679688 192.667969 313.789062 L 192.667969 306.359375 C 192.667969 304.46875 193.832031 302.875 195.210938 302.875 L 235.4375 302.875 C 236.105469 302.875 236.742188 302.597656 237.195312 302.105469 C 237.648438 301.617188 237.878906 300.960938 237.828125 300.292969 C 237.746094 299.21875 237.710938 293.765625 237.710938 291.777344 C 237.710938 273.808594 242.003906 260.992188 250.460938 253.675781 C 252.714844 251.730469 255.148438 249.890625 257.503906 248.109375 Z M 257.503906 248.109375 " fill-opacity="1" fill-rule="nonzero"/></svg>