<?xml version="1.0" encoding="UTF-8"?><svg xmlns="http://www.w3.org/2000/svg" xmlns:xlink="http://www.w3.org/1999/xlink" width="375" zoomAndPan="magnify" viewBox="0 0 375 374.999991" height="374.999991" preserveAspectRatio="xMidYMid meet" version="1.0"><defs><clipPath id="clip-0"><path d="M 26.675781 27 L 348 27 L 348 348 L 26.675781 348 Z M 26.675781 27 " clip-rule="nonzero"/></clipPath></defs><path fill="rgb(100%, 74.899292%, 0.779724%)" d="M 264.664062 119.964844 L 316.074219 131.5 C 316.324219 131.5 316.828125 131.5 317.078125 131.5 C 319.335938 131.5 321.339844 129.996094 321.84375 127.488281 C 322.34375 124.730469 320.839844 122.222656 318.082031 121.46875 L 266.671875 109.933594 C 263.914062 109.433594 261.40625 110.9375 260.652344 113.695312 C 260.402344 116.703125 261.90625 119.464844 264.664062 119.964844 Z M 264.664062 119.964844 " fill-opacity="1" fill-rule="nonzero"/><path fill="rgb(100%, 74.899292%, 0.779724%)" d="M 255.386719 138.019531 C 254.882812 140.78125 256.390625 143.289062 259.148438 144.039062 L 310.558594 155.574219 C 310.808594 155.574219 311.308594 155.574219 311.5625 155.574219 C 313.816406 155.574219 315.824219 154.070312 316.324219 151.5625 C 316.828125 148.804688 315.324219 146.296875 312.5625 145.542969 L 261.152344 134.007812 C 258.644531 133.757812 255.886719 135.511719 255.386719 138.019531 Z M 255.386719 138.019531 " fill-opacity="1" fill-rule="nonzero"/><path fill="rgb(100%, 74.899292%, 0.779724%)" d="M 249.617188 162.097656 C 249.117188 164.855469 250.621094 167.363281 253.378906 168.113281 L 304.789062 179.652344 C 305.039062 179.652344 305.542969 179.652344 305.792969 179.652344 C 308.050781 179.652344 310.054688 178.144531 310.558594 175.636719 C 311.058594 172.878906 309.554688 170.371094 306.796875 169.621094 L 255.386719 158.082031 C 252.878906 157.832031 250.371094 159.589844 249.617188 162.097656 Z M 249.617188 162.097656 " fill-opacity="1" fill-rule="nonzero"/><path fill="rgb(100%, 74.899292%, 0.779724%)" d="M 244.101562 186.421875 C 243.597656 189.179688 245.105469 191.6875 247.863281 192.441406 L 299.273438 203.976562 C 299.523438 203.976562 300.023438 203.976562 300.277344 203.976562 C 302.53125 203.976562 304.539062 202.472656 305.039062 199.964844 C 305.542969 197.207031 304.039062 194.699219 301.277344 193.945312 L 250.121094 182.660156 C 247.359375 181.90625 244.601562 183.664062 244.101562 186.421875 Z M 244.101562 186.421875 " fill-opacity="1" fill-rule="nonzero"/><path fill="rgb(100%, 74.899292%, 0.779724%)" d="M 246.609375 252.878906 L 280.964844 260.652344 C 281.214844 260.652344 281.71875 260.652344 281.96875 260.652344 C 284.226562 260.652344 286.230469 259.148438 286.734375 256.640625 C 287.234375 253.882812 285.730469 251.375 282.972656 250.621094 L 231.8125 239.085938 L 240.589844 245.355469 C 243.597656 247.359375 245.355469 249.867188 246.609375 252.878906 Z M 246.609375 252.878906 " fill-opacity="1" fill-rule="nonzero"/><path fill="rgb(100%, 74.899292%, 0.779724%)" d="M 277.453125 274.945312 L 247.359375 268.175781 L 247.359375 278.457031 L 275.449219 284.726562 C 275.699219 284.726562 276.199219 284.726562 276.453125 284.726562 C 278.707031 284.726562 280.714844 283.222656 281.214844 280.714844 C 281.96875 278.207031 280.214844 275.699219 277.453125 274.945312 Z M 277.453125 274.945312 " fill-opacity="1" fill-rule="nonzero"/><path fill="rgb(100%, 74.899292%, 0.779724%)" d="M 287.738281 236.578125 C 289.992188 236.578125 292 235.074219 292.5 232.566406 C 293.003906 229.804688 291.5 227.296875 288.738281 226.546875 L 222.28125 211.5 L 222.28125 221.78125 L 286.484375 236.328125 C 286.984375 236.578125 287.234375 236.578125 287.738281 236.578125 Z M 287.738281 236.578125 " fill-opacity="1" fill-rule="nonzero"/><path fill="rgb(100%, 74.899292%, 0.779724%)" d="M 207.988281 116.703125 L 212.253906 118.210938 C 215.011719 119.210938 217.519531 121.21875 219.273438 123.476562 C 224.289062 120.464844 228.300781 115.449219 229.554688 109.433594 C 230.808594 103.664062 229.804688 97.644531 226.796875 92.628906 C 223.535156 87.613281 218.523438 83.851562 212.503906 82.597656 C 207.988281 81.597656 203.726562 82.097656 199.714844 83.351562 C 201.21875 86.109375 201.96875 89.371094 201.96875 92.628906 L 201.96875 93.132812 C 203.726562 92.378906 205.480469 91.878906 207.488281 91.878906 C 208.492188 91.878906 209.492188 91.878906 210.246094 92.128906 C 213.507812 92.882812 216.265625 94.886719 218.019531 97.644531 C 219.777344 100.40625 220.277344 103.664062 219.523438 106.925781 C 218.773438 112.945312 213.507812 116.703125 207.988281 116.703125 Z M 207.988281 116.703125 " fill-opacity="1" fill-rule="nonzero"/><path fill="rgb(100%, 74.899292%, 0.779724%)" d="M 222.28125 191.4375 L 222.28125 201.71875 L 225.042969 202.222656 C 225.292969 202.222656 225.792969 202.222656 226.042969 202.222656 C 228.300781 202.222656 230.308594 200.714844 230.808594 198.460938 L 238.082031 167.113281 C 239.335938 161.34375 238.332031 155.324219 235.324219 150.308594 C 232.3125 145.542969 227.550781 142.035156 222.285156 140.527344 L 222.285156 151.3125 C 224.039062 152.316406 225.792969 153.820312 226.796875 155.574219 C 228.550781 158.335938 229.054688 161.59375 228.300781 164.855469 Z M 222.28125 191.4375 " fill-opacity="1" fill-rule="nonzero"/><g clip-path="url(#clip-0)"><path fill="rgb(100%, 74.899292%, 0.779724%)" d="M 33.195312 294.257812 L 178.648438 347.421875 C 179.652344 347.921875 180.90625 347.921875 182.160156 347.921875 C 184.164062 347.921875 186.171875 347.421875 187.925781 346.167969 C 190.683594 344.414062 192.191406 341.152344 192.191406 337.890625 L 192.191406 327.109375 L 205.230469 332.625 C 205.730469 332.875 206.484375 333.128906 207.238281 333.128906 C 208.238281 333.128906 209.242188 332.875 209.996094 332.375 C 211.5 331.371094 212.253906 329.867188 212.253906 328.113281 L 212.253906 313.566406 L 232.3125 313.566406 C 235.074219 313.566406 237.328125 311.308594 237.328125 308.550781 L 237.328125 257.894531 C 237.328125 256.136719 236.578125 254.632812 235.074219 253.882812 L 212.253906 237.832031 L 212.253906 132.503906 C 212.253906 130.496094 211 128.492188 208.992188 127.738281 L 192.191406 121.71875 L 192.191406 92.882812 C 192.191406 88.617188 189.683594 84.855469 185.667969 83.351562 L 59.027344 37.207031 L 221.28125 37.207031 L 221.28125 56.769531 L 247.359375 56.769531 L 247.359375 70.058594 L 169.621094 52.503906 C 168.367188 52.253906 167.363281 52.253906 166.109375 52.253906 C 160.089844 52.253906 155.074219 55.765625 152.566406 60.78125 L 162.097656 64.292969 C 163.097656 63.039062 164.605469 62.285156 166.109375 62.285156 C 166.359375 62.285156 166.859375 62.285156 167.113281 62.535156 L 333.628906 100.152344 C 336.386719 100.65625 338.144531 103.414062 337.390625 106.171875 L 288.238281 318.082031 L 247.359375 308.800781 C 247.359375 312.3125 245.855469 315.824219 243.597656 318.332031 L 285.980469 327.863281 C 286.734375 328.113281 287.484375 328.113281 288.238281 328.113281 C 292.753906 328.113281 297.015625 325.101562 298.019531 320.339844 L 347.421875 108.179688 C 348.425781 104.167969 347.671875 100.152344 345.414062 96.894531 C 343.160156 93.382812 339.898438 91.125 335.886719 90.121094 L 257.390625 72.566406 L 257.390625 57.019531 C 257.390625 51.503906 252.878906 46.988281 247.359375 46.988281 L 231.3125 46.988281 L 231.3125 37.207031 C 231.3125 31.691406 226.796875 27.175781 221.28125 27.175781 L 36.707031 27.175781 C 31.1875 27.175781 26.675781 31.691406 26.675781 37.207031 L 26.675781 38.210938 C 26.675781 38.710938 26.675781 39.214844 26.675781 39.714844 L 26.675781 284.976562 C 26.675781 289.242188 29.183594 293.003906 33.195312 294.257812 Z M 192.191406 132.253906 L 202.222656 136.015625 L 202.222656 240.339844 C 202.222656 242.09375 202.972656 243.597656 204.476562 244.351562 L 227.296875 260.402344 L 227.296875 303.285156 L 207.238281 303.285156 C 204.476562 303.285156 202.222656 305.542969 202.222656 308.300781 L 202.222656 320.339844 L 192.191406 316.074219 Z M 36.707031 39.714844 L 182.160156 92.882812 L 182.160156 338.144531 L 36.707031 284.976562 Z M 36.707031 39.714844 " fill-opacity="1" fill-rule="nonzero"/></g></svg>