<?xml version="1.0" encoding="UTF-8"?><svg xmlns="http://www.w3.org/2000/svg" xmlns:xlink="http://www.w3.org/1999/xlink" width="375" zoomAndPan="magnify" viewBox="0 0 375 374.999991" height="374.999991" preserveAspectRatio="xMidYMid meet" version="1.0"><defs><clipPath id="clip-0"><path d="M 18 22.109375 L 357 22.109375 L 357 352 L 18 352 Z M 18 22.109375 " clip-rule="nonzero"/></clipPath></defs><g clip-path="url(#clip-0)"><path fill="rgb(100%, 100%, 100%)" d="M 242.007812 351.5625 C 241.445312 351.703125 240.875 351.777344 240.292969 351.777344 L 239.027344 350.617188 L 239.027344 340.757812 C 239.027344 331.578125 239.183594 317.683594 239.183594 301.777344 C 239.273438 297.085938 238.824219 292.445312 237.839844 287.855469 C 236.851562 283.265625 235.355469 278.847656 233.34375 274.609375 C 268.574219 268.238281 308.054688 249.199219 308.054688 181.007812 C 308.128906 176.542969 307.808594 172.105469 307.097656 167.695312 C 306.390625 163.285156 305.300781 158.972656 303.835938 154.753906 C 302.367188 150.535156 300.542969 146.476562 298.363281 142.582031 C 296.179688 138.683594 293.675781 135.007812 290.847656 131.550781 C 291.910156 127.578125 292.640625 123.542969 293.035156 119.453125 C 293.433594 115.359375 293.492188 111.261719 293.210938 107.15625 C 292.929688 103.054688 292.3125 99.003906 291.363281 95 C 290.410156 91 289.136719 87.105469 287.542969 83.3125 C 287.121094 82.242188 286.488281 81.308594 285.648438 80.519531 C 284.804688 79.730469 283.835938 79.15625 282.738281 78.800781 C 280.667969 78.21875 278.558594 77.957031 276.40625 78.011719 C 272.234375 78.382812 268.109375 79.046875 264.035156 80.003906 C 259.957031 80.960938 255.96875 82.203125 252.066406 83.726562 C 248.164062 85.25 244.390625 87.042969 240.746094 89.105469 C 237.101562 91.167969 233.617188 93.476562 230.300781 96.035156 C 216.207031 92.527344 201.898438 90.734375 187.375 90.65625 C 172.84375 90.683594 158.53125 92.464844 144.433594 96.003906 C 141.113281 93.445312 137.625 91.132812 133.972656 89.070312 C 130.324219 87.007812 126.542969 85.214844 122.636719 83.691406 C 118.730469 82.164062 114.738281 80.925781 110.65625 79.96875 C 106.570312 79.011719 102.441406 78.351562 98.265625 77.980469 C 96.117188 77.925781 94.003906 78.191406 91.933594 78.769531 C 90.835938 79.128906 89.863281 79.703125 89.023438 80.496094 C 88.183594 81.289062 87.550781 82.222656 87.128906 83.296875 C 85.535156 87.089844 84.265625 90.984375 83.320312 94.988281 C 82.371094 98.988281 81.761719 103.042969 81.484375 107.144531 C 81.207031 111.25 81.273438 115.347656 81.675781 119.441406 C 82.078125 123.53125 82.816406 127.566406 83.886719 131.535156 C 81.058594 134.992188 78.550781 138.667969 76.367188 142.5625 C 74.1875 146.460938 72.359375 150.519531 70.890625 154.738281 C 69.421875 158.953125 68.332031 163.269531 67.625 167.679688 C 66.914062 172.089844 66.59375 176.527344 66.664062 180.992188 C 66.664062 249.152344 106.113281 268.285156 141.269531 274.714844 C 139.320312 278.65625 137.890625 282.78125 136.972656 287.082031 C 132.730469 288.632812 128.347656 289.433594 123.828125 289.492188 C 120.707031 289.558594 117.675781 289.070312 114.734375 288.019531 C 111.792969 286.972656 109.136719 285.433594 106.761719 283.402344 C 106.300781 282.789062 105.75 282.277344 105.109375 281.855469 C 104.050781 280.691406 103.058594 279.476562 102.128906 278.207031 L 101.820312 277.839844 C 101.738281 277.691406 101.644531 277.550781 101.539062 277.421875 L 100.242188 275.75 C 99.824219 275.257812 99.429688 274.742188 99.070312 274.207031 C 98.191406 272.679688 97.230469 271.207031 96.179688 269.792969 C 95.132812 268.378906 94.003906 267.03125 92.796875 265.75 C 91.589844 264.464844 90.316406 263.257812 88.96875 262.125 C 87.621094 260.992188 86.210938 259.941406 84.738281 258.976562 C 83.269531 258.007812 81.746094 257.128906 80.175781 256.339844 C 78.601562 255.550781 76.988281 254.855469 75.332031 254.253906 C 73.675781 253.652344 71.992188 253.152344 70.28125 252.746094 C 68.566406 252.34375 66.835938 252.042969 65.085938 251.839844 C 56.886719 251.839844 51.449219 254.730469 49.8125 260.019531 C 47.246094 268.285156 56.207031 274.453125 60.53125 277.3125 C 62.390625 278.59375 64.132812 280.023438 65.753906 281.597656 C 67.371094 283.175781 68.847656 284.875 70.179688 286.703125 C 71.507812 288.527344 72.675781 290.453125 73.679688 292.480469 C 74.6875 294.503906 75.511719 296.601562 76.164062 298.765625 C 76.632812 299.980469 77.148438 301.175781 77.710938 302.351562 C 78.277344 303.527344 78.886719 304.679688 79.539062 305.804688 C 80.195312 306.929688 80.894531 308.03125 81.636719 309.101562 C 82.378906 310.171875 83.164062 311.210938 83.988281 312.222656 C 84.8125 313.230469 85.675781 314.207031 86.578125 315.144531 C 87.480469 316.085938 88.417969 316.988281 89.394531 317.855469 C 90.367188 318.722656 91.375 319.546875 92.414062 320.332031 C 93.453125 321.121094 94.519531 321.863281 95.621094 322.5625 C 96.71875 323.265625 97.84375 323.921875 98.992188 324.53125 C 100.144531 325.144531 101.316406 325.710938 102.511719 326.230469 C 103.707031 326.746094 104.921875 327.21875 106.152344 327.640625 C 107.386719 328.0625 108.632812 328.433594 109.894531 328.757812 C 111.15625 329.082031 112.429688 329.355469 113.714844 329.574219 C 114.996094 329.796875 116.289062 329.96875 117.585938 330.089844 C 118.882812 330.207031 120.183594 330.277344 121.484375 330.292969 C 122.789062 330.308594 124.089844 330.273438 125.390625 330.1875 C 128.800781 330.179688 132.199219 329.957031 135.582031 329.523438 L 135.769531 350.679688 L 134.394531 351.792969 C 133.914062 351.792969 133.34375 351.792969 133.839844 351.917969 C 130.695312 350.867188 127.585938 349.726562 124.511719 348.492188 C 121.433594 347.261719 118.398438 345.9375 115.398438 344.527344 C 112.398438 343.117188 109.445312 341.621094 106.535156 340.035156 C 103.625 338.449219 100.761719 336.78125 97.949219 335.03125 C 95.136719 333.277344 92.378906 331.445312 89.671875 329.527344 C 86.964844 327.613281 84.320312 325.621094 81.730469 323.550781 C 79.144531 321.480469 76.617188 319.335938 74.15625 317.121094 C 71.691406 314.902344 69.296875 312.613281 66.96875 310.253906 C 64.640625 307.894531 62.382812 305.46875 60.195312 302.976562 C 58.011719 300.484375 55.898438 297.933594 53.863281 295.316406 C 51.828125 292.699219 49.871094 290.027344 47.988281 287.296875 C 46.109375 284.566406 44.3125 281.78125 42.597656 278.945312 C 40.878906 276.109375 39.25 273.226562 37.703125 270.292969 C 36.15625 267.363281 34.695312 264.386719 33.324219 261.371094 C 31.949219 258.351562 30.667969 255.296875 29.472656 252.203125 C 28.28125 249.109375 27.179688 245.984375 26.167969 242.828125 C 25.160156 239.667969 24.242188 236.484375 23.421875 233.273438 C 22.597656 230.0625 21.867188 226.828125 21.234375 223.574219 C 20.601562 220.320312 20.066406 217.050781 19.621094 213.761719 C 19.179688 210.476562 18.835938 207.179688 18.589844 203.875 C 18.339844 200.570312 18.1875 197.257812 18.136719 193.941406 C 18.082031 190.628906 18.125 187.3125 18.265625 184 C 18.40625 180.6875 18.640625 177.382812 18.976562 174.085938 C 19.3125 170.785156 19.742188 167.5 20.269531 164.226562 C 20.796875 160.953125 21.417969 157.699219 22.136719 154.460938 C 22.855469 151.226562 23.667969 148.011719 24.574219 144.824219 C 25.480469 141.632812 26.480469 138.472656 27.570312 135.34375 C 28.664062 132.214844 29.84375 129.117188 31.117188 126.058594 C 32.390625 122.996094 33.753906 119.976562 35.203125 116.996094 C 36.65625 114.011719 38.191406 111.078125 39.816406 108.1875 C 41.4375 105.296875 43.144531 102.457031 44.933594 99.664062 C 46.722656 96.875 48.59375 94.140625 50.542969 91.457031 C 52.492188 88.777344 54.519531 86.15625 56.625 83.59375 C 58.726562 81.035156 60.902344 78.535156 63.152344 76.101562 C 65.40625 73.667969 67.722656 71.304688 70.113281 69.003906 C 72.503906 66.707031 74.957031 64.484375 77.476562 62.328125 C 79.996094 60.175781 82.574219 58.097656 85.21875 56.097656 C 87.859375 54.09375 90.558594 52.171875 93.3125 50.328125 C 96.066406 48.484375 98.871094 46.726562 101.730469 45.046875 C 104.585938 43.367188 107.492188 41.773438 110.441406 40.265625 C 113.390625 38.757812 116.386719 37.339844 119.417969 36.007812 C 122.453125 34.675781 125.523438 33.433594 128.632812 32.28125 C 131.738281 31.128906 134.875 30.070312 138.046875 29.101562 C 141.214844 28.132812 144.410156 27.261719 147.632812 26.480469 C 150.851562 25.699219 154.09375 25.015625 157.351562 24.425781 C 160.613281 23.835938 163.890625 23.34375 167.179688 22.945312 C 170.46875 22.550781 173.765625 22.25 177.074219 22.046875 C 180.382812 21.84375 183.691406 21.734375 187.003906 21.726562 C 190.320312 21.71875 193.628906 21.804688 196.9375 21.992188 C 200.246094 22.175781 203.546875 22.460938 206.839844 22.839844 C 210.128906 23.21875 213.40625 23.695312 216.671875 24.265625 C 219.933594 24.835938 223.179688 25.503906 226.40625 26.265625 C 229.628906 27.027344 232.828125 27.886719 236.003906 28.835938 C 239.179688 29.785156 242.320312 30.828125 245.433594 31.964844 C 248.546875 33.097656 251.625 34.324219 254.667969 35.640625 C 257.707031 36.953125 260.710938 38.359375 263.667969 39.851562 C 266.628906 41.34375 269.539062 42.917969 272.40625 44.582031 C 275.273438 46.246094 278.089844 47.992188 280.851562 49.820312 C 283.617188 51.648438 286.324219 53.554688 288.976562 55.542969 C 291.628906 57.53125 294.222656 59.59375 296.753906 61.734375 C 299.285156 63.875 301.75 66.085938 304.152344 68.371094 C 306.554688 70.65625 308.886719 73.007812 311.148438 75.429688 C 313.414062 77.851562 315.601562 80.335938 317.71875 82.886719 C 319.839844 85.4375 321.878906 88.046875 323.84375 90.714844 C 325.808594 93.386719 327.691406 96.113281 329.496094 98.890625 C 331.300781 101.671875 333.023438 104.503906 334.664062 107.386719 C 336.300781 110.269531 337.851562 113.195312 339.320312 116.167969 C 340.785156 119.140625 342.164062 122.15625 343.457031 125.207031 C 344.746094 128.261719 345.945312 131.351562 347.054688 134.476562 C 348.164062 137.601562 349.179688 140.753906 350.101562 143.9375 C 351.027344 147.125 351.855469 150.332031 352.589844 153.566406 C 353.328125 156.796875 353.96875 160.050781 354.511719 163.320312 C 355.058594 166.589844 355.503906 169.875 355.859375 173.171875 C 356.210938 176.46875 356.464844 179.769531 356.625 183.082031 C 356.78125 186.394531 356.84375 189.707031 356.808594 193.023438 C 356.769531 196.339844 356.636719 199.648438 356.40625 202.957031 C 356.175781 206.265625 355.851562 209.5625 355.425781 212.851562 C 355.003906 216.140625 354.484375 219.414062 353.867188 222.671875 C 353.25 225.929688 352.539062 229.164062 351.734375 232.382812 C 350.929688 235.597656 350.03125 238.789062 349.039062 241.949219 C 348.042969 245.113281 346.960938 248.246094 345.785156 251.34375 C 344.605469 254.445312 343.339844 257.507812 341.984375 260.53125 C 340.628906 263.558594 339.183594 266.539062 337.65625 269.480469 C 336.125 272.421875 334.507812 275.3125 332.808594 278.160156 C 331.105469 281.003906 329.324219 283.796875 327.457031 286.539062 C 325.59375 289.277344 323.652344 291.960938 321.628906 294.589844 C 319.605469 297.214844 317.507812 299.78125 315.335938 302.285156 C 313.164062 304.789062 310.921875 307.226562 308.605469 309.597656 C 306.289062 311.96875 303.90625 314.269531 301.457031 316.503906 C 299.003906 318.734375 296.492188 320.890625 293.914062 322.976562 C 291.335938 325.058594 288.703125 327.066406 286.007812 328.996094 C 283.3125 330.925781 280.5625 332.773438 277.757812 334.542969 C 274.957031 336.308594 272.101562 337.992188 269.203125 339.59375 C 266.300781 341.195312 263.351562 342.707031 260.363281 344.132812 C 257.371094 345.5625 254.339844 346.898438 251.273438 348.148438 C 248.203125 349.398438 245.097656 350.554688 241.960938 351.621094 Z M 242.007812 351.5625 " fill-opacity="1" fill-rule="nonzero"/></g></svg>