<?xml version="1.0" encoding="UTF-8"?><svg xmlns="http://www.w3.org/2000/svg" xmlns:xlink="http://www.w3.org/1999/xlink" width="375" zoomAndPan="magnify" viewBox="0 0 375 374.999991" height="374.999991" preserveAspectRatio="xMidYMid meet" version="1.0"><defs><clipPath id="clip-0"><path d="M 41.082031 41.082031 L 333.582031 41.082031 L 333.582031 333.582031 L 41.082031 333.582031 Z M 41.082031 41.082031 " clip-rule="nonzero"/></clipPath></defs><g clip-path="url(#clip-0)"><path fill="rgb(100%, 100%, 100%)" d="M 127.503906 41.082031 C 79.855469 41.082031 41.082031 79.855469 41.082031 127.503906 L 41.082031 247.160156 C 41.082031 294.808594 79.855469 333.582031 127.503906 333.582031 L 247.160156 333.582031 C 294.808594 333.582031 333.582031 294.808594 333.582031 247.160156 L 333.582031 127.503906 C 333.582031 79.855469 294.808594 41.082031 247.160156 41.082031 Z M 127.503906 54.378906 L 247.160156 54.378906 C 287.625 54.378906 320.285156 87.042969 320.285156 127.503906 L 320.285156 247.160156 C 320.285156 287.625 287.625 320.285156 247.160156 320.285156 L 127.503906 320.285156 C 87.042969 320.285156 54.378906 287.625 54.378906 247.160156 L 54.378906 127.503906 C 54.378906 87.042969 87.042969 54.378906 127.503906 54.378906 Z M 267.105469 94.265625 C 266.230469 94.265625 265.367188 94.347656 264.511719 94.519531 C 263.65625 94.691406 262.824219 94.941406 262.015625 95.277344 C 261.210938 95.609375 260.445312 96.019531 259.71875 96.503906 C 258.992188 96.988281 258.320312 97.539062 257.703125 98.160156 C 257.085938 98.777344 256.535156 99.445312 256.050781 100.171875 C 255.566406 100.898438 255.15625 101.664062 254.820312 102.472656 C 254.488281 103.277344 254.234375 104.109375 254.066406 104.964844 C 253.894531 105.820312 253.808594 106.6875 253.808594 107.558594 C 253.808594 108.433594 253.894531 109.296875 254.066406 110.152344 C 254.234375 111.007812 254.488281 111.839844 254.820312 112.648438 C 255.15625 113.453125 255.566406 114.21875 256.050781 114.945312 C 256.535156 115.671875 257.085938 116.34375 257.703125 116.960938 C 258.320312 117.578125 258.992188 118.128906 259.71875 118.613281 C 260.445312 119.097656 261.210938 119.507812 262.015625 119.84375 C 262.824219 120.175781 263.65625 120.429688 264.511719 120.597656 C 265.367188 120.769531 266.230469 120.855469 267.105469 120.855469 C 267.976562 120.855469 268.84375 120.769531 269.699219 120.597656 C 270.554688 120.429688 271.386719 120.175781 272.191406 119.84375 C 273 119.507812 273.765625 119.097656 274.492188 118.613281 C 275.21875 118.128906 275.890625 117.578125 276.507812 116.960938 C 277.125 116.34375 277.675781 115.671875 278.160156 114.945312 C 278.644531 114.21875 279.054688 113.453125 279.386719 112.648438 C 279.722656 111.839844 279.976562 111.007812 280.144531 110.152344 C 280.316406 109.296875 280.402344 108.433594 280.402344 107.558594 C 280.402344 106.6875 280.316406 105.820312 280.144531 104.964844 C 279.976562 104.109375 279.722656 103.277344 279.386719 102.472656 C 279.054688 101.664062 278.644531 100.898438 278.160156 100.171875 C 277.675781 99.445312 277.125 98.777344 276.507812 98.160156 C 275.890625 97.539062 275.21875 96.988281 274.492188 96.503906 C 273.765625 96.019531 273 95.609375 272.191406 95.277344 C 271.386719 94.941406 270.554688 94.691406 269.699219 94.519531 C 268.84375 94.347656 267.976562 94.265625 267.105469 94.265625 Z M 187.332031 114.207031 C 147.023438 114.207031 114.207031 147.023438 114.207031 187.332031 C 114.207031 227.640625 147.023438 260.457031 187.332031 260.457031 C 227.640625 260.457031 260.457031 227.640625 260.457031 187.332031 C 260.457031 147.023438 227.640625 114.207031 187.332031 114.207031 Z M 187.332031 127.503906 C 220.453125 127.503906 247.160156 154.210938 247.160156 187.332031 C 247.160156 220.453125 220.453125 247.160156 187.332031 247.160156 C 154.210938 247.160156 127.503906 220.453125 127.503906 187.332031 C 127.503906 154.210938 154.210938 127.503906 187.332031 127.503906 Z M 187.332031 127.503906 " fill-opacity="1" fill-rule="nonzero"/></g></svg>