<?xml version="1.0" encoding="UTF-8"?><svg xmlns="http://www.w3.org/2000/svg" xmlns:xlink="http://www.w3.org/1999/xlink" width="375" zoomAndPan="magnify" viewBox="0 0 375 374.999991" height="374.999991" preserveAspectRatio="xMidYMid meet" version="1.0"><defs><clipPath id="clip-0"><path d="M 10.777344 18.101562 L 356.527344 18.101562 L 356.527344 363.851562 L 10.777344 363.851562 Z M 10.777344 18.101562 " clip-rule="nonzero"/></clipPath></defs><g clip-path="url(#clip-0)"><path fill="rgb(100%, 100%, 100%)" d="M 57.527344 18.101562 C 31.867188 18.101562 10.777344 39.195312 10.777344 64.855469 L 10.777344 317.207031 C 10.777344 342.761719 31.867188 363.851562 57.527344 363.851562 L 309.878906 363.851562 C 335.4375 363.851562 356.527344 342.761719 356.527344 317.207031 L 356.527344 64.855469 C 356.527344 39.195312 335.4375 18.101562 309.878906 18.101562 Z M 57.527344 44.699219 L 309.878906 44.699219 C 321.097656 44.699219 329.929688 53.53125 329.929688 64.855469 L 329.929688 317.207031 C 329.929688 328.425781 321.097656 337.257812 309.878906 337.257812 L 57.527344 337.257812 C 46.203125 337.257812 37.371094 328.425781 37.371094 317.207031 L 37.371094 64.855469 C 37.371094 53.53125 46.203125 44.699219 57.527344 44.699219 Z M 90.5625 71.296875 C 75.914062 71.296875 63.96875 83.242188 63.96875 97.890625 C 63.96875 112.539062 75.914062 124.488281 90.5625 124.488281 C 105.214844 124.488281 117.160156 112.539062 117.160156 97.890625 C 117.160156 83.242188 105.214844 71.296875 90.5625 71.296875 Z M 63.96875 151.085938 L 63.96875 310.660156 L 117.160156 310.660156 L 117.160156 151.085938 Z M 143.757812 151.085938 L 143.757812 310.660156 L 196.949219 310.660156 L 196.949219 239.390625 C 196.949219 217.261719 199.027344 197.417969 225.621094 197.417969 C 251.804688 197.417969 250.140625 221.210938 250.140625 240.847656 L 250.140625 310.660156 L 303.332031 310.660156 L 303.332031 231.910156 C 303.332031 186.199219 293.777344 151.085938 241.933594 151.085938 C 217 151.085938 204.429688 161.058594 197.574219 174.355469 L 196.949219 174.355469 L 196.949219 151.085938 Z M 143.757812 151.085938 " fill-opacity="1" fill-rule="nonzero"/></g></svg>