<?xml version="1.0" encoding="UTF-8"?><svg xmlns="http://www.w3.org/2000/svg" xmlns:xlink="http://www.w3.org/1999/xlink" width="375" zoomAndPan="magnify" viewBox="0 0 375 374.999991" height="374.999991" preserveAspectRatio="xMidYMid meet" version="1.0"><defs><clipPath id="clip-0"><path d="M 106 24.785156 L 268 24.785156 L 268 49 L 106 49 Z M 106 24.785156 " clip-rule="nonzero"/></clipPath><clipPath id="clip-1"><path d="M 106 315 L 269 315 L 269 350.285156 L 106 350.285156 Z M 106 315 " clip-rule="nonzero"/></clipPath><clipPath id="clip-2"><path d="M 24.785156 286 L 142 286 L 142 322 L 24.785156 322 Z M 24.785156 286 " clip-rule="nonzero"/></clipPath><clipPath id="clip-3"><path d="M 248 141 L 350.285156 141 L 350.285156 243 L 248 243 Z M 248 141 " clip-rule="nonzero"/></clipPath><clipPath id="clip-4"><path d="M 24.785156 48 L 72 48 L 72 83 L 24.785156 83 Z M 24.785156 48 " clip-rule="nonzero"/></clipPath></defs><path fill="rgb(100%, 74.899292%, 0.779724%)" d="M 141.035156 152.660156 C 141.035156 143.03125 133.222656 135.222656 123.597656 135.222656 C 113.96875 135.222656 106.160156 143.03125 106.160156 152.660156 C 106.160156 162.285156 113.96875 170.097656 123.597656 170.097656 C 133.222656 170.097656 141.035156 162.285156 141.035156 152.660156 " fill-opacity="1" fill-rule="nonzero"/><g clip-path="url(#clip-0)"><path fill="rgb(100%, 74.899292%, 0.779724%)" d="M 210.785156 42.222656 C 210.785156 39.019531 213.394531 36.410156 216.597656 36.410156 L 267.84375 36.410156 C 265.4375 29.667969 259.03125 24.785156 251.472656 24.785156 L 123.597656 24.785156 C 113.96875 24.785156 106.160156 32.59375 106.160156 42.222656 L 106.160156 48.035156 L 210.785156 48.035156 L 210.785156 42.222656 " fill-opacity="1" fill-rule="nonzero"/></g><path fill="rgb(100%, 74.899292%, 0.779724%)" d="M 152.660156 221.230469 L 152.660156 210.785156 C 152.660156 194.753906 139.625 181.722656 123.597656 181.722656 C 107.566406 181.722656 94.535156 194.753906 94.535156 210.785156 L 94.535156 221.230469 C 101.753906 224.90625 109.609375 227.222656 117.785156 227.949219 L 117.785156 216.597656 L 129.410156 216.597656 L 129.410156 227.949219 C 137.582031 227.222656 145.4375 224.90625 152.660156 221.230469 " fill-opacity="1" fill-rule="nonzero"/><path fill="rgb(100%, 74.899292%, 0.779724%)" d="M 59.953125 158.472656 L 71.285156 158.472656 L 71.285156 170.097656 L 59.976562 170.097656 C 61.429688 186.148438 68.878906 201.15625 80.980469 211.988281 C 81.59375 212.53125 82.273438 213.03125 82.910156 213.554688 L 82.910156 210.785156 C 82.910156 195.09375 91.832031 181.496094 104.867188 174.707031 C 98.597656 169.371094 94.535156 161.515625 94.535156 152.660156 C 94.535156 136.628906 107.566406 123.597656 123.597656 123.597656 C 139.625 123.597656 152.660156 136.628906 152.660156 152.660156 C 152.660156 161.515625 148.59375 169.371094 142.328125 174.707031 C 155.363281 181.496094 164.285156 195.09375 164.285156 210.785156 L 164.285156 213.554688 C 164.921875 213.03125 165.601562 212.53125 166.214844 211.988281 C 178.316406 201.15625 185.761719 186.148438 187.214844 170.097656 L 175.910156 170.097656 L 175.910156 158.472656 L 187.238281 158.472656 C 184.46875 127.84375 160.039062 103.414062 129.410156 100.640625 L 129.410156 111.972656 L 117.785156 111.972656 L 117.785156 100.640625 C 87.15625 103.414062 62.726562 127.84375 59.953125 158.472656 " fill-opacity="1" fill-rule="nonzero"/><path fill="rgb(100%, 74.899292%, 0.779724%)" d="M 234.035156 82.910156 L 327.035156 82.910156 L 327.035156 94.535156 L 234.035156 94.535156 Z M 234.035156 59.660156 L 257.285156 59.660156 L 257.285156 71.285156 L 234.035156 71.285156 Z M 268.910156 59.660156 L 327.035156 59.660156 L 327.035156 71.285156 L 268.910156 71.285156 Z M 222.410156 106.160156 L 338.660156 106.160156 L 338.660156 48.035156 L 222.410156 48.035156 L 222.410156 106.160156 " fill-opacity="1" fill-rule="nonzero"/><g clip-path="url(#clip-1)"><path fill="rgb(100%, 74.899292%, 0.779724%)" d="M 181.722656 327.035156 L 193.347656 327.035156 L 193.347656 338.660156 L 181.722656 338.660156 Z M 152.660156 327.035156 C 152.660156 330.234375 150.046875 332.847656 146.847656 332.847656 L 106.160156 332.847656 C 106.160156 342.472656 113.96875 350.285156 123.597656 350.285156 L 251.472656 350.285156 C 261.097656 350.285156 268.910156 342.472656 268.910156 332.847656 L 268.910156 315.410156 L 152.660156 315.410156 L 152.660156 327.035156 " fill-opacity="1" fill-rule="nonzero"/></g><g clip-path="url(#clip-2)"><path fill="rgb(100%, 74.899292%, 0.779724%)" d="M 129.410156 309.597656 L 77.097656 309.597656 L 77.097656 297.972656 L 129.410156 297.972656 Z M 65.472656 309.597656 L 36.410156 309.597656 L 36.410156 297.972656 L 65.472656 297.972656 Z M 141.035156 286.347656 L 24.785156 286.347656 L 24.785156 321.222656 L 141.035156 321.222656 L 141.035156 286.347656 " fill-opacity="1" fill-rule="nonzero"/></g><g clip-path="url(#clip-3)"><path fill="rgb(100%, 74.899292%, 0.779724%)" d="M 343.449219 141.035156 C 341.769531 141.035156 340.179688 141.648438 338.910156 142.738281 L 248.339844 222.683594 L 268.636719 242.980469 L 348.582031 152.410156 C 349.671875 151.136719 350.285156 149.550781 350.285156 147.867188 C 350.285156 144.101562 347.21875 141.035156 343.449219 141.035156 " fill-opacity="1" fill-rule="nonzero"/></g><path fill="rgb(100%, 74.899292%, 0.779724%)" d="M 210.785156 257.285156 L 210.785156 267.546875 C 210.785156 272.203125 209.605469 276.652344 207.445312 280.535156 L 234.035156 280.535156 C 249.269531 280.535156 261.824219 268.726562 263.007812 253.789062 L 237.53125 228.3125 C 222.589844 229.492188 210.785156 242.050781 210.785156 257.285156 " fill-opacity="1" fill-rule="nonzero"/><path fill="rgb(100%, 74.899292%, 0.779724%)" d="M 234.035156 292.160156 L 193.347656 292.160156 C 190.644531 292.160156 188.304688 290.296875 187.695312 287.6875 C 187.082031 285.054688 188.328125 282.351562 190.734375 281.148438 C 195.933594 278.558594 199.160156 273.335938 199.160156 267.546875 L 199.160156 257.285156 C 199.160156 235.648438 216.164062 217.9375 237.507812 216.710938 L 268.910156 189.011719 L 268.910156 117.785156 L 216.597656 117.785156 C 213.394531 117.785156 210.785156 115.171875 210.785156 111.972656 L 210.785156 59.660156 L 106.160156 59.660156 L 106.160156 90.832031 C 109.929688 89.949219 113.8125 89.3125 117.785156 89.015625 L 117.785156 71.285156 L 129.410156 71.285156 L 129.410156 89.015625 C 166.441406 91.855469 196.027344 121.441406 198.863281 158.472656 L 216.597656 158.472656 L 216.597656 170.097656 L 198.839844 170.097656 C 197.34375 189.441406 188.535156 207.628906 173.980469 220.636719 C 161.582031 231.71875 145.9375 238.324219 129.410156 239.574219 L 129.410156 257.285156 L 117.785156 257.285156 L 117.785156 239.574219 C 113.832031 239.28125 109.972656 238.644531 106.160156 237.757812 L 106.160156 274.722656 L 146.847656 274.722656 C 150.046875 274.722656 152.660156 277.332031 152.660156 280.535156 L 152.660156 303.785156 L 268.910156 303.785156 L 268.910156 272.316406 C 261.804688 284.191406 248.839844 292.160156 234.035156 292.160156 " fill-opacity="1" fill-rule="nonzero"/><g clip-path="url(#clip-4)"><path fill="rgb(100%, 74.899292%, 0.779724%)" d="M 59.660156 71.285156 L 36.410156 71.285156 L 36.410156 59.660156 L 59.660156 59.660156 Z M 71.285156 48.035156 L 24.785156 48.035156 L 24.785156 82.910156 L 71.285156 82.910156 L 71.285156 48.035156 " fill-opacity="1" fill-rule="nonzero"/></g></svg>