<?xml version="1.0" encoding="UTF-8"?><svg xmlns="http://www.w3.org/2000/svg" xmlns:xlink="http://www.w3.org/1999/xlink" width="375" zoomAndPan="magnify" viewBox="0 0 375 374.999991" height="374.999991" preserveAspectRatio="xMidYMid meet" version="1.0"><defs><clipPath id="clip-0"><path d="M 48.328125 26 L 326.578125 26 L 326.578125 350 L 48.328125 350 Z M 48.328125 26 " clip-rule="nonzero"/></clipPath></defs><g clip-path="url(#clip-0)"><path fill="rgb(100%, 100%, 100%)" d="M 313.929688 26.1875 L 60.972656 26.1875 C 54.007812 26.1875 48.328125 31.925781 48.328125 38.851562 L 48.328125 228.828125 C 48.328125 235.753906 54.007812 241.492188 60.972656 241.492188 C 67.941406 241.492188 73.621094 235.753906 73.621094 228.828125 L 73.621094 51.515625 L 301.28125 51.515625 L 301.28125 210.96875 L 245.503906 266.820312 L 174.804688 266.820312 C 171.445312 266.773438 168.234375 268.109375 165.8125 270.484375 L 130.535156 305.957031 L 130.535156 279.488281 C 130.535156 272.511719 124.804688 266.820312 117.890625 266.820312 L 60.972656 266.820312 C 54.007812 266.820312 48.328125 272.511719 48.328125 279.488281 C 48.328125 286.464844 54.007812 292.152344 60.972656 292.152344 L 105.242188 292.152344 L 105.242188 336.480469 C 105.242188 341.574219 108.355469 346.175781 113.097656 348.105469 C 114.578125 348.847656 116.207031 349.195312 117.890625 349.144531 C 121.25 349.144531 124.460938 347.859375 126.878906 345.484375 L 179.992188 292.152344 L 250.691406 292.152344 C 254.050781 292.152344 257.261719 290.867188 259.679688 288.492188 L 322.921875 225.167969 C 325.292969 222.742188 326.625 219.527344 326.578125 216.160156 L 326.578125 38.851562 C 326.578125 31.925781 320.84375 26.1875 313.929688 26.1875 " fill-opacity="1" fill-rule="nonzero"/></g><path fill="rgb(100%, 100%, 100%)" d="M 174.804688 190.832031 L 174.804688 127.507812 C 174.804688 120.582031 169.074219 114.839844 162.15625 114.839844 C 155.238281 114.839844 149.507812 120.582031 149.507812 127.507812 L 149.507812 190.832031 C 149.507812 197.757812 155.238281 203.496094 162.15625 203.496094 C 169.074219 203.496094 174.804688 197.757812 174.804688 190.832031 " fill-opacity="1" fill-rule="nonzero"/><path fill="rgb(100%, 100%, 100%)" d="M 250.691406 190.832031 L 250.691406 127.507812 C 250.691406 120.582031 244.957031 114.839844 238.042969 114.839844 C 231.125 114.839844 225.394531 120.582031 225.394531 127.507812 L 225.394531 190.832031 C 225.394531 197.757812 231.125 203.496094 238.042969 203.496094 C 244.957031 203.496094 250.691406 197.757812 250.691406 190.832031 " fill-opacity="1" fill-rule="nonzero"/></svg>