<?xml version="1.0" encoding="UTF-8"?><svg xmlns="http://www.w3.org/2000/svg" xmlns:xlink="http://www.w3.org/1999/xlink" width="375" zoomAndPan="magnify" viewBox="0 0 375 374.999991" height="374.999991" preserveAspectRatio="xMidYMid meet" version="1.0"><defs><clipPath id="clip-0"><path d="M 147 15.402344 L 228 15.402344 L 228 97 L 147 97 Z M 147 15.402344 " clip-rule="nonzero"/></clipPath><clipPath id="clip-1"><path d="M 225 108 L 304.472656 108 L 304.472656 200 L 225 200 Z M 225 108 " clip-rule="nonzero"/></clipPath><clipPath id="clip-2"><path d="M 70.472656 108 L 150 108 L 150 200 L 70.472656 200 Z M 70.472656 108 " clip-rule="nonzero"/></clipPath><clipPath id="clip-3"><path d="M 144 270 L 177 270 L 177 359.652344 L 144 359.652344 Z M 144 270 " clip-rule="nonzero"/></clipPath><clipPath id="clip-4"><path d="M 198 270 L 231 270 L 231 359.652344 L 198 359.652344 Z M 198 270 " clip-rule="nonzero"/></clipPath></defs><g clip-path="url(#clip-0)"><path fill="rgb(100%, 74.899292%, 0.779724%)" d="M 187.472656 96.085938 C 165.160156 96.085938 147.144531 78.066406 147.144531 55.742188 C 147.144531 33.421875 165.160156 15.402344 187.472656 15.402344 C 209.789062 15.402344 227.800781 33.421875 227.800781 55.742188 C 227.800781 78.066406 209.789062 96.085938 187.472656 96.085938 Z M 187.472656 26.160156 C 171.074219 26.160156 157.898438 39.339844 157.898438 55.742188 C 157.898438 72.148438 171.074219 85.328125 187.472656 85.328125 C 203.871094 85.328125 217.046875 72.148438 217.046875 55.742188 C 217.046875 39.339844 203.871094 26.160156 187.472656 26.160156 Z M 187.472656 26.160156 " fill-opacity="1" fill-rule="nonzero"/></g><path fill="rgb(100%, 74.899292%, 0.779724%)" d="M 244.199219 281.65625 L 130.746094 281.65625 C 125.640625 281.65625 121.066406 279.238281 118.109375 275.203125 C 115.152344 271.167969 114.078125 266.058594 115.691406 261.21875 L 138.8125 182.148438 L 235.867188 182.148438 L 259.253906 261.488281 C 260.597656 266.328125 259.792969 271.4375 256.835938 275.472656 C 253.878906 279.238281 249.308594 281.65625 244.199219 281.65625 Z M 146.878906 192.90625 L 125.640625 264.445312 C 125.101562 266.058594 125.371094 267.671875 126.445312 268.75 C 127.519531 270.09375 128.863281 270.898438 130.476562 270.898438 L 243.929688 270.898438 C 245.542969 270.898438 247.15625 270.09375 247.964844 268.75 C 249.039062 267.402344 249.308594 265.789062 248.769531 264.445312 L 228.070312 192.90625 Z M 146.878906 192.90625 " fill-opacity="1" fill-rule="nonzero"/><g clip-path="url(#clip-1)"><path fill="rgb(100%, 74.899292%, 0.779724%)" d="M 298.773438 174.078125 L 234.253906 109.800781 C 232.101562 107.648438 228.875 107.648438 226.726562 109.800781 C 225.917969 110.609375 225.378906 111.683594 225.378906 112.492188 C 229.949219 113.566406 233.175781 117.601562 233.175781 122.441406 L 233.175781 123.519531 L 291.246094 181.339844 C 293.128906 183.222656 293.667969 185.105469 293.667969 186.449219 C 293.667969 186.988281 293.667969 187.527344 293.128906 187.796875 C 292.324219 188.601562 289.097656 188.332031 286.675781 185.914062 L 233.175781 132.929688 L 233.175781 147.992188 L 279.148438 193.710938 C 282.914062 197.476562 287.484375 199.359375 291.785156 199.359375 C 295.28125 199.359375 298.507812 198.285156 300.925781 195.59375 C 303.34375 193.175781 304.421875 189.949219 304.421875 186.449219 C 304.421875 182.148438 302.269531 177.574219 298.773438 174.078125 Z M 298.773438 174.078125 " fill-opacity="1" fill-rule="nonzero"/></g><g clip-path="url(#clip-2)"><path fill="rgb(100%, 74.899292%, 0.779724%)" d="M 141.769531 132.929688 L 88.269531 186.183594 C 85.582031 188.871094 82.625 189.140625 81.816406 188.066406 C 81.546875 187.796875 81.277344 186.988281 81.277344 186.71875 C 81.277344 185.375 81.816406 183.492188 83.699219 181.609375 L 141.769531 123.785156 L 141.769531 122.710938 C 141.769531 117.871094 145.265625 113.835938 149.566406 112.761719 C 149.296875 111.683594 148.757812 110.878906 148.222656 110.070312 C 146.070312 107.917969 142.84375 107.917969 140.695312 110.070312 L 76.171875 174.078125 C 72.675781 177.574219 70.523438 182.148438 70.523438 186.71875 C 70.523438 190.214844 71.871094 193.445312 74.019531 195.863281 C 76.441406 198.285156 79.667969 199.628906 83.160156 199.628906 C 87.460938 199.628906 92.03125 197.746094 95.796875 193.980469 L 141.769531 148.261719 Z M 141.769531 132.929688 " fill-opacity="1" fill-rule="nonzero"/></g><path fill="rgb(100%, 74.899292%, 0.779724%)" d="M 238.554688 192.90625 L 136.390625 192.90625 L 136.390625 122.710938 C 136.390625 114.105469 143.382812 106.84375 152.253906 106.84375 L 222.960938 106.84375 C 231.5625 106.84375 238.824219 113.835938 238.824219 122.710938 L 238.824219 192.90625 Z M 147.144531 182.148438 L 227.800781 182.148438 L 227.800781 122.710938 C 227.800781 120.023438 225.648438 117.601562 222.691406 117.601562 L 152.253906 117.601562 C 149.566406 117.601562 147.144531 119.753906 147.144531 122.710938 Z M 147.144531 182.148438 " fill-opacity="1" fill-rule="nonzero"/><g clip-path="url(#clip-3)"><path fill="rgb(100%, 74.899292%, 0.779724%)" d="M 160.589844 359.652344 C 151.714844 359.652344 144.457031 352.390625 144.457031 343.515625 L 144.457031 270.898438 L 176.71875 270.898438 L 176.71875 343.515625 C 176.71875 352.390625 169.460938 359.652344 160.589844 359.652344 Z M 155.210938 281.65625 L 155.210938 343.515625 C 155.210938 346.472656 157.632812 348.894531 160.589844 348.894531 C 163.546875 348.894531 165.964844 346.472656 165.964844 343.515625 L 165.964844 281.65625 Z M 155.210938 281.65625 " fill-opacity="1" fill-rule="nonzero"/></g><g clip-path="url(#clip-4)"><path fill="rgb(100%, 74.899292%, 0.779724%)" d="M 214.359375 359.652344 C 205.484375 359.652344 198.226562 352.390625 198.226562 343.515625 L 198.226562 270.898438 L 230.488281 270.898438 L 230.488281 343.515625 C 230.488281 352.390625 223.230469 359.652344 214.359375 359.652344 Z M 208.980469 281.65625 L 208.980469 343.515625 C 208.980469 346.472656 211.402344 348.894531 214.359375 348.894531 C 217.316406 348.894531 219.734375 346.472656 219.734375 343.515625 L 219.734375 281.65625 Z M 208.980469 281.65625 " fill-opacity="1" fill-rule="nonzero"/></g></svg>